<svg width="62" height="68" viewBox="0 0 62 68" fill="none" xmlns="http://www.w3.org/2000/svg">
<path fill-rule="evenodd" clip-rule="evenodd" d="M31.467 3.59294C16.417 3.59294 4.21702 17.1929 4.21702 33.97C4.21702 50.747 16.417 64.3482 31.467 64.3482C46.517 64.3482 58.717 50.7482 58.717 33.9711C58.717 17.1941 46.517 3.59294 31.467 3.59294ZM2.09302 33.97C2.09302 15.8876 15.245 1.22632 31.467 1.22632C47.69 1.22632 60.841 15.8853 60.841 33.9711C60.841 52.0558 47.691 66.7159 31.467 66.7159C15.245 66.7159 2.09302 52.0558 2.09302 33.9711V33.97Z" fill="#0B3B3D"/>
<path d="M31.156 56.2839C24.519 56.2839 18.504 52.6999 14.874 46.6881C16.118 46.9199 17.466 47.0348 18.711 47.0348C30.741 47.0348 40.49 36.1681 40.49 22.7576C40.49 19.7512 39.971 16.9765 39.141 14.2019C46.194 17.6699 50.861 25.5323 50.861 34.3176C50.861 46.4573 42.045 56.2839 31.156 56.2839Z" fill="white"/>
<mask id="mask0" mask-type="alpha" maskUnits="userSpaceOnUse" x="14" y="14" width="37" height="43">
<path d="M31.157 56.2839C24.519 56.2839 18.504 52.6999 14.874 46.6881C16.119 46.9199 17.467 47.0348 18.712 47.0348C30.742 47.0348 40.49 36.1681 40.49 22.7576C40.49 19.7512 39.972 16.9765 39.142 14.2019C46.194 17.6699 50.862 25.5323 50.862 34.3176C50.862 46.4573 42.046 56.2839 31.157 56.2839Z" fill="white"/>
</mask>
<g mask="url(#mask0)">
<path d="M50.792 51.1404C50.9478 51.3111 51.1575 51.4068 51.376 51.4068C51.5945 51.4068 51.8042 51.3111 51.96 51.1404C52.1132 50.9667 52.199 50.7329 52.199 50.4894C52.199 50.2458 52.1132 50.012 51.96 49.8384C51.8042 49.6676 51.5945 49.5719 51.376 49.5719C51.1575 49.5719 50.9478 49.6676 50.792 49.8384C50.6388 50.012 50.553 50.2458 50.553 50.4894C50.553 50.7329 50.6388 50.9667 50.792 51.1404ZM46.864 46.7594C47.0198 46.9302 47.2295 47.0258 47.448 47.0258C47.6665 47.0258 47.8762 46.9302 48.032 46.7594C48.1852 46.5857 48.271 46.3519 48.271 46.1084C48.271 45.8648 48.1852 45.6311 48.032 45.4574C47.8762 45.2866 47.6665 45.191 47.448 45.191C47.2295 45.191 47.0198 45.2866 46.864 45.4574C46.7108 45.6311 46.625 45.8648 46.625 46.1084C46.625 46.3519 46.7108 46.5857 46.864 46.7594ZM50.792 42.4988C50.9478 42.6696 51.1575 42.7653 51.376 42.7653C51.5945 42.7653 51.8042 42.6696 51.96 42.4988C52.1132 42.3252 52.199 42.0914 52.199 41.8478C52.199 41.6043 52.1132 41.3705 51.96 41.1968C51.8042 41.026 51.5945 40.9304 51.376 40.9304C51.1575 40.9304 50.9478 41.026 50.792 41.1968C50.6388 41.3705 50.553 41.6043 50.553 41.8478C50.553 42.0914 50.6388 42.3252 50.792 42.4988ZM46.864 42.4988C47.0198 42.6696 47.2295 42.7653 47.448 42.7653C47.6665 42.7653 47.8762 42.6696 48.032 42.4988C48.1852 42.3252 48.271 42.0914 48.271 41.8478C48.271 41.6043 48.1852 41.3705 48.032 41.1968C47.8762 41.026 47.6665 40.9304 47.448 40.9304C47.2295 40.9304 47.0198 41.026 46.864 41.1968C46.7108 41.3705 46.625 41.6043 46.625 41.8478C46.625 42.0914 46.7108 42.3252 46.864 42.4988ZM50.792 46.7594C50.9478 46.9302 51.1575 47.0258 51.376 47.0258C51.5945 47.0258 51.8042 46.9302 51.96 46.7594C52.1132 46.5857 52.199 46.3519 52.199 46.1084C52.199 45.8648 52.1132 45.6311 51.96 45.4574C51.8042 45.2866 51.5945 45.191 51.376 45.191C51.1575 45.191 50.9478 45.2866 50.792 45.4574C50.6388 45.6311 50.553 45.8648 50.553 46.1084C50.553 46.3519 50.6388 46.5857 50.792 46.7594ZM50.792 38.2371C50.9478 38.4079 51.1575 38.5035 51.376 38.5035C51.5945 38.5035 51.8042 38.4079 51.96 38.2371C52.1132 38.0634 52.199 37.8296 52.199 37.5861C52.199 37.3426 52.1132 37.1088 51.96 36.9351C51.8042 36.7643 51.5945 36.6687 51.376 36.6687C51.1575 36.6687 50.9478 36.7643 50.792 36.9351C50.6388 37.1088 50.553 37.3426 50.553 37.5861C50.553 37.8296 50.6388 38.0634 50.792 38.2371ZM43.041 42.4988C43.1968 42.6696 43.4065 42.7653 43.625 42.7653C43.8435 42.7653 44.0532 42.6696 44.209 42.4988C44.3622 42.3252 44.448 42.0914 44.448 41.8478C44.448 41.6043 44.3622 41.3705 44.209 41.1968C44.0532 41.026 43.8435 40.9304 43.625 40.9304C43.4065 40.9304 43.1968 41.026 43.041 41.1968C42.8878 41.3705 42.802 41.6043 42.802 41.8478C42.802 42.0914 42.8878 42.3252 43.041 42.4988ZM46.864 38.2371C47.0198 38.4079 47.2295 38.5035 47.448 38.5035C47.6665 38.5035 47.8762 38.4079 48.032 38.2371C48.1852 38.0634 48.271 37.8296 48.271 37.5861C48.271 37.3426 48.1852 37.1088 48.032 36.9351C47.8762 36.7643 47.6665 36.6687 47.448 36.6687C47.2295 36.6687 47.0198 36.7643 46.864 36.9351C46.7108 37.1088 46.625 37.3426 46.625 37.5861C46.625 37.8296 46.7108 38.0634 46.864 38.2371ZM50.792 33.8595C50.9478 34.0302 51.1575 34.1259 51.376 34.1259C51.5945 34.1259 51.8042 34.0302 51.96 33.8595C52.1132 33.6858 52.199 33.452 52.199 33.2085C52.199 32.9649 52.1132 32.7311 51.96 32.5574C51.8042 32.3867 51.5945 32.291 51.376 32.291C51.1575 32.291 50.9478 32.3867 50.792 32.5574C50.474 33.0301 50.474 33.505 50.792 33.8595ZM39.219 55.401C39.3748 55.5717 39.5845 55.6674 39.803 55.6674C40.0215 55.6674 40.2312 55.5717 40.387 55.401C40.5402 55.2273 40.626 54.9935 40.626 54.75C40.626 54.5064 40.5402 54.2726 40.387 54.099C40.2312 53.9282 40.0215 53.8325 39.803 53.8325C39.5845 53.8325 39.3748 53.9282 39.219 54.099C39.0658 54.2726 38.98 54.5064 38.98 54.75C38.98 54.9935 39.0658 55.2273 39.219 55.401ZM46.864 55.401C47.0198 55.5717 47.2295 55.6674 47.448 55.6674C47.6665 55.6674 47.8762 55.5717 48.032 55.401C48.1852 55.2273 48.271 54.9935 48.271 54.75C48.271 54.5064 48.1852 54.2726 48.032 54.099C47.8762 53.9282 47.6665 53.8325 47.448 53.8325C47.2295 53.8325 47.0198 53.9282 46.864 54.099C46.7108 54.2726 46.625 54.5064 46.625 54.75C46.625 54.9935 46.7108 55.2273 46.864 55.401ZM43.041 51.1404C43.1968 51.3111 43.4065 51.4068 43.625 51.4068C43.8435 51.4068 44.0532 51.3111 44.209 51.1404C44.3622 50.9667 44.448 50.7329 44.448 50.4894C44.448 50.2458 44.3622 50.012 44.209 49.8384C44.0532 49.6676 43.8435 49.5719 43.625 49.5719C43.4065 49.5719 43.1968 49.6676 43.041 49.8384C42.8878 50.012 42.802 50.2458 42.802 50.4894C42.802 50.7329 42.8878 50.9667 43.041 51.1404ZM39.219 51.1404C39.3748 51.3111 39.5845 51.4068 39.803 51.4068C40.0215 51.4068 40.2312 51.3111 40.387 51.1404C40.5402 50.9667 40.626 50.7329 40.626 50.4894C40.626 50.2458 40.5402 50.012 40.387 49.8384C40.2312 49.6676 40.0215 49.5719 39.803 49.5719C39.5845 49.5719 39.3748 49.6676 39.219 49.8384C39.0658 50.012 38.98 50.2458 38.98 50.4894C38.98 50.7329 39.0658 50.9667 39.219 51.1404ZM43.041 55.401C43.1968 55.5717 43.4065 55.6674 43.625 55.6674C43.8435 55.6674 44.0532 55.5717 44.209 55.401C44.3622 55.2273 44.448 54.9935 44.448 54.75C44.448 54.5064 44.3622 54.2726 44.209 54.099C44.0532 53.9282 43.8435 53.8325 43.625 53.8325C43.4065 53.8325 43.1968 53.9282 43.041 54.099C42.8878 54.2726 42.802 54.5064 42.802 54.75C42.802 54.9935 42.8878 55.2273 43.041 55.401ZM43.041 46.7616C43.1968 46.9324 43.4065 47.0281 43.625 47.0281C43.8435 47.0281 44.0532 46.9324 44.209 46.7616C44.3622 46.588 44.448 46.3542 44.448 46.1106C44.448 45.8671 44.3622 45.6333 44.209 45.4596C44.0532 45.2889 43.8435 45.1932 43.625 45.1932C43.4065 45.1932 43.1968 45.2889 43.041 45.4596C42.8878 45.6333 42.802 45.8671 42.802 46.1106C42.802 46.3542 42.8878 46.588 43.041 46.7616ZM46.864 51.1404C47.0198 51.3111 47.2295 51.4068 47.448 51.4068C47.6665 51.4068 47.8762 51.3111 48.032 51.1404C48.1852 50.9667 48.271 50.7329 48.271 50.4894C48.271 50.2458 48.1852 50.012 48.032 49.8384C47.8762 49.6676 47.6665 49.5719 47.448 49.5719C47.2295 49.5719 47.0198 49.6676 46.864 49.8384C46.7108 50.012 46.625 50.2458 46.625 50.4894C46.625 50.7329 46.7108 50.9667 46.864 51.1404ZM35.397 51.1404C35.5528 51.3111 35.7625 51.4068 35.981 51.4068C36.1995 51.4068 36.4092 51.3111 36.565 51.1404C36.7182 50.9667 36.804 50.7329 36.804 50.4894C36.804 50.2458 36.7182 50.012 36.565 49.8384C36.4092 49.6676 36.1995 49.5719 35.981 49.5719C35.7625 49.5719 35.5528 49.6676 35.397 49.8384C34.972 50.1929 34.972 50.7859 35.397 51.1404ZM39.22 46.7616C39.3757 46.9321 39.5853 47.0275 39.8035 47.0275C40.0217 47.0275 40.2313 46.9321 40.387 46.7616C40.5402 46.588 40.626 46.3542 40.626 46.1106C40.626 45.8671 40.5402 45.6333 40.387 45.4596C40.2312 45.2889 40.0215 45.1932 39.803 45.1932C39.5845 45.1932 39.3748 45.2889 39.219 45.4596C39.0658 45.6333 38.98 45.8671 38.98 46.1106C38.98 46.3542 39.0658 46.588 39.219 46.7616H39.22Z" fill="#0A3B3C"/>
<path d="M50.793 51.1402C50.9488 51.3109 51.1585 51.4066 51.377 51.4066C51.5955 51.4066 51.8052 51.3109 51.961 51.1402C52.1142 50.9665 52.2 50.7327 52.2 50.4892C52.2 50.2456 52.1142 50.0118 51.961 49.8381C51.8052 49.6674 51.5955 49.5717 51.377 49.5717C51.1585 49.5717 50.9488 49.6674 50.793 49.8381C50.6398 50.0118 50.554 50.2456 50.554 50.4892C50.554 50.7327 50.6398 50.9665 50.793 51.1402ZM46.864 46.7614C47.0198 46.9322 47.2295 47.0278 47.448 47.0278C47.6665 47.0278 47.8762 46.9322 48.032 46.7614C48.1852 46.5877 48.271 46.3539 48.271 46.1104C48.271 45.8668 48.1852 45.633 48.032 45.4594C47.8762 45.2886 47.6665 45.193 47.448 45.193C47.2295 45.193 47.0198 45.2886 46.864 45.4594C46.7108 45.633 46.625 45.8668 46.625 46.1104C46.625 46.3539 46.7108 46.5877 46.864 46.7614ZM43.042 42.5008C43.1978 42.6716 43.4075 42.7673 43.626 42.7673C43.8445 42.7673 44.0542 42.6716 44.21 42.5008C44.3632 42.3272 44.449 42.0934 44.449 41.8498C44.449 41.6063 44.3632 41.3725 44.21 41.1988C44.0542 41.028 43.8445 40.9324 43.626 40.9324C43.4075 40.9324 43.1978 41.028 43.042 41.1988C42.8888 41.3725 42.803 41.6063 42.803 41.8498C42.803 42.0934 42.8888 42.3272 43.042 42.5008ZM35.397 55.4008C35.5528 55.5715 35.7625 55.6672 35.981 55.6672C36.1995 55.6672 36.4092 55.5715 36.565 55.4008C36.7182 55.2271 36.804 54.9933 36.804 54.7497C36.804 54.5062 36.7182 54.2724 36.565 54.0987C36.4092 53.928 36.1995 53.8323 35.981 53.8323C35.7625 53.8323 35.5528 53.928 35.397 54.0987C35.2438 54.2724 35.158 54.5062 35.158 54.7497C35.158 54.9933 35.2438 55.2271 35.397 55.4008ZM31.469 55.4008C31.6248 55.5715 31.8345 55.6672 32.053 55.6672C32.2715 55.6672 32.4812 55.5715 32.637 55.4008C32.7902 55.2271 32.876 54.9933 32.876 54.7497C32.876 54.5062 32.7902 54.2724 32.637 54.0987C32.4812 53.928 32.2715 53.8323 32.053 53.8323C31.8345 53.8323 31.6248 53.928 31.469 54.0987C31.3158 54.2724 31.23 54.5062 31.23 54.7497C31.23 54.9933 31.3158 55.2271 31.469 55.4008ZM39.22 55.4008C39.3757 55.5712 39.5852 55.6666 39.8035 55.6666C40.0217 55.6666 40.2312 55.5712 40.387 55.4008C40.5402 55.2271 40.626 54.9933 40.626 54.7497C40.626 54.5062 40.5402 54.2724 40.387 54.0987C40.2312 53.928 40.0215 53.8323 39.803 53.8323C39.5845 53.8323 39.3748 53.928 39.219 54.0987C39.0658 54.2724 38.98 54.5062 38.98 54.7497C38.98 54.9933 39.0658 55.2271 39.219 55.4008H39.22ZM35.397 51.1402C35.5528 51.3109 35.7625 51.4066 35.981 51.4066C36.1995 51.4066 36.4092 51.3109 36.565 51.1402C36.7182 50.9665 36.804 50.7327 36.804 50.4892C36.804 50.2456 36.7182 50.0118 36.565 49.8381C36.4092 49.6674 36.1995 49.5717 35.981 49.5717C35.7625 49.5717 35.5528 49.6674 35.397 49.8381C34.972 50.1926 34.972 50.7857 35.397 51.1402ZM50.792 33.8593C50.9478 34.03 51.1575 34.1257 51.376 34.1257C51.5945 34.1257 51.8042 34.03 51.96 33.8593C52.1132 33.6856 52.199 33.4518 52.199 33.2082C52.199 32.9647 52.1132 32.7309 51.96 32.5572C51.8042 32.3865 51.5945 32.2908 51.376 32.2908C51.1575 32.2908 50.9478 32.3865 50.792 32.5572C50.474 33.0299 50.474 33.5048 50.792 33.8593ZM46.864 29.5975C47.0198 29.7683 47.2295 29.864 47.448 29.864C47.6665 29.864 47.8762 29.7683 48.032 29.5975C48.1852 29.4239 48.271 29.1901 48.271 28.9465C48.271 28.703 48.1852 28.4692 48.032 28.2955C47.8762 28.1248 47.6665 28.0291 47.448 28.0291C47.2295 28.0291 47.0198 28.1248 46.864 28.2955C46.7108 28.4692 46.625 28.703 46.625 28.9465C46.625 29.1901 46.7108 29.4239 46.864 29.5975ZM50.792 25.3381C50.9478 25.5088 51.1575 25.6045 51.376 25.6045C51.5945 25.6045 51.8042 25.5088 51.96 25.3381C52.1135 25.1644 52.1995 24.9303 52.1995 24.6865C52.1995 24.4427 52.1135 24.2086 51.96 24.0349C51.8042 23.8642 51.5945 23.7685 51.376 23.7685C51.1575 23.7685 50.9478 23.8642 50.792 24.0349C50.6388 24.2086 50.553 24.4424 50.553 24.6859C50.553 24.9295 50.6388 25.1633 50.792 25.337V25.3381ZM46.864 25.3381C47.0198 25.5088 47.2295 25.6045 47.448 25.6045C47.6665 25.6045 47.8762 25.5088 48.032 25.3381C48.1855 25.1644 48.2715 24.9303 48.2715 24.6865C48.2715 24.4427 48.1855 24.2086 48.032 24.0349C47.8762 23.8642 47.6665 23.7685 47.448 23.7685C47.2295 23.7685 47.0198 23.8642 46.864 24.0349C46.7108 24.2086 46.625 24.4424 46.625 24.6859C46.625 24.9295 46.7108 25.1633 46.864 25.337V25.3381ZM50.792 29.5975C50.9478 29.7683 51.1575 29.864 51.376 29.864C51.5945 29.864 51.8042 29.7683 51.96 29.5975C52.1132 29.4239 52.199 29.1901 52.199 28.9465C52.199 28.703 52.1132 28.4692 51.96 28.2955C51.8042 28.1248 51.5945 28.0291 51.376 28.0291C51.1575 28.0291 50.9478 28.1248 50.792 28.2955C50.6388 28.4692 50.553 28.703 50.553 28.9465C50.553 29.1901 50.6388 29.4239 50.792 29.5975ZM50.792 21.0764C50.9478 21.2471 51.1575 21.3428 51.376 21.3428C51.5945 21.3428 51.8042 21.2471 51.96 21.0764C52.1132 20.9027 52.199 20.6689 52.199 20.4253C52.199 20.1818 52.1132 19.948 51.96 19.7743C51.8042 19.6036 51.5945 19.5079 51.376 19.5079C51.1575 19.5079 50.9478 19.6036 50.792 19.7743C50.6388 19.948 50.553 20.1818 50.553 20.4253C50.553 20.6689 50.6388 20.9027 50.792 21.0764ZM43.041 25.3381C43.1968 25.5088 43.4065 25.6045 43.625 25.6045C43.8435 25.6045 44.0532 25.5088 44.209 25.3381C44.3625 25.1644 44.4485 24.9303 44.4485 24.6865C44.4485 24.4427 44.3625 24.2086 44.209 24.0349C44.0532 23.8642 43.8435 23.7685 43.625 23.7685C43.4065 23.7685 43.1968 23.8642 43.041 24.0349C42.8878 24.2086 42.802 24.4424 42.802 24.6859C42.802 24.9295 42.8878 25.1633 43.041 25.337V25.3381ZM46.864 21.0764C47.0198 21.2471 47.2295 21.3428 47.448 21.3428C47.6665 21.3428 47.8762 21.2471 48.032 21.0764C48.1852 20.9027 48.271 20.6689 48.271 20.4253C48.271 20.1818 48.1852 19.948 48.032 19.7743C47.8762 19.6036 47.6665 19.5079 47.448 19.5079C47.2295 19.5079 47.0198 19.6036 46.864 19.7743C46.7108 19.948 46.625 20.1818 46.625 20.4253C46.625 20.6689 46.7108 20.9027 46.864 21.0764ZM50.792 16.6987C50.9478 16.8695 51.1575 16.9652 51.376 16.9652C51.5945 16.9652 51.8042 16.8695 51.96 16.6987C52.1135 16.525 52.1995 16.291 52.1995 16.0472C52.1995 15.8033 52.1135 15.5693 51.96 15.3956C51.8042 15.2248 51.5945 15.1292 51.376 15.1292C51.1575 15.1292 50.9478 15.2248 50.792 15.3956C50.6388 15.5692 50.553 15.803 50.553 16.0466C50.553 16.2901 50.6388 16.5239 50.792 16.6976V16.6987Z" fill="#0A3B3C"/>
<path d="M43.044 42.5011C43.1998 42.6719 43.4095 42.7676 43.628 42.7676C43.8465 42.7676 44.0562 42.6719 44.212 42.5011C44.3652 42.3275 44.451 42.0937 44.451 41.8501C44.451 41.6066 44.3652 41.3728 44.212 41.1991C44.0562 41.0284 43.8465 40.9327 43.628 40.9327C43.4095 40.9327 43.1998 41.0284 43.044 41.1991C42.8908 41.3728 42.805 41.6066 42.805 41.8501C42.805 42.0937 42.8908 42.3275 43.044 42.5011ZM39.222 38.2372C39.3778 38.4079 39.5875 38.5036 39.806 38.5036C40.0245 38.5036 40.2342 38.4079 40.39 38.2372C40.5432 38.0635 40.629 37.8297 40.629 37.5862C40.629 37.3426 40.5432 37.1088 40.39 36.9352C40.2342 36.7644 40.0245 36.6687 39.806 36.6687C39.5875 36.6687 39.3778 36.7644 39.222 36.9352C39.0688 37.1088 38.983 37.3426 38.983 37.5862C38.983 37.8297 39.0688 38.0635 39.222 38.2372ZM46.867 38.2372C47.0228 38.4079 47.2325 38.5036 47.451 38.5036C47.6695 38.5036 47.8792 38.4079 48.035 38.2372C48.1882 38.0635 48.274 37.8297 48.274 37.5862C48.274 37.3426 48.1882 37.1088 48.035 36.9352C47.8792 36.7644 47.6695 36.6687 47.451 36.6687C47.2325 36.6687 47.0228 36.7644 46.867 36.9352C46.7138 37.1088 46.628 37.3426 46.628 37.5862C46.628 37.8297 46.7138 38.0635 46.867 38.2372ZM43.044 33.8596C43.1998 34.0303 43.4095 34.126 43.628 34.126C43.8465 34.126 44.0562 34.0303 44.212 33.8596C44.3652 33.6859 44.451 33.4521 44.451 33.2085C44.451 32.965 44.3652 32.7312 44.212 32.5575C44.0562 32.3868 43.8465 32.2911 43.628 32.2911C43.4095 32.2911 43.1998 32.3868 43.044 32.5575C42.725 33.0302 42.725 33.5051 43.044 33.8596ZM39.222 33.8596C39.3778 34.0303 39.5875 34.126 39.806 34.126C40.0245 34.126 40.2342 34.0303 40.39 33.8596C40.5432 33.6859 40.629 33.4521 40.629 33.2085C40.629 32.965 40.5432 32.7312 40.39 32.5575C40.2342 32.3868 40.0245 32.2911 39.806 32.2911C39.5875 32.2911 39.3778 32.3868 39.222 32.5575C38.903 33.0302 38.903 33.5051 39.222 33.8596ZM43.044 38.2372C43.1998 38.4079 43.4095 38.5036 43.628 38.5036C43.8465 38.5036 44.0562 38.4079 44.212 38.2372C44.3652 38.0635 44.451 37.8297 44.451 37.5862C44.451 37.3426 44.3652 37.1088 44.212 36.9352C44.0562 36.7644 43.8465 36.6687 43.628 36.6687C43.4095 36.6687 43.1998 36.7644 43.044 36.9352C42.8908 37.1088 42.805 37.3426 42.805 37.5862C42.805 37.8297 42.8908 38.0635 43.044 38.2372ZM43.044 29.5979C43.1998 29.7686 43.4095 29.8643 43.628 29.8643C43.8465 29.8643 44.0562 29.7686 44.212 29.5979C44.3652 29.4242 44.451 29.1904 44.451 28.9468C44.451 28.7033 44.3652 28.4695 44.212 28.2958C44.0562 28.1251 43.8465 28.0294 43.628 28.0294C43.4095 28.0294 43.1998 28.1251 43.044 28.2958C42.8908 28.4695 42.805 28.7033 42.805 28.9468C42.805 29.1904 42.8908 29.4242 43.044 29.5979ZM46.867 33.8596C47.0228 34.0303 47.2325 34.126 47.451 34.126C47.6695 34.126 47.8792 34.0303 48.035 33.8596C48.1882 33.6859 48.274 33.4521 48.274 33.2085C48.274 32.965 48.1882 32.7312 48.035 32.5575C47.8792 32.3868 47.6695 32.2911 47.451 32.2911C47.2325 32.2911 47.0228 32.3868 46.867 32.5575C46.548 33.0302 46.548 33.5051 46.867 33.8596ZM35.399 33.8596C35.5548 34.0303 35.7645 34.126 35.983 34.126C36.2015 34.126 36.4112 34.0303 36.567 33.8596C36.7202 33.6859 36.806 33.4521 36.806 33.2085C36.806 32.965 36.7202 32.7312 36.567 32.5575C36.4112 32.3868 36.2015 32.2911 35.983 32.2911C35.7645 32.2911 35.5548 32.3868 35.399 32.5575C35.08 32.912 34.974 33.5051 35.399 33.8596ZM39.222 29.5979C39.3778 29.7686 39.5875 29.8643 39.806 29.8643C40.0245 29.8643 40.2342 29.7686 40.39 29.5979C40.5432 29.4242 40.629 29.1904 40.629 28.9468C40.629 28.7033 40.5432 28.4695 40.39 28.2958C40.2342 28.1251 40.0245 28.0294 39.806 28.0294C39.5875 28.0294 39.3778 28.1251 39.222 28.2958C39.0688 28.4695 38.983 28.7033 38.983 28.9468C38.983 29.1904 39.0688 29.4242 39.222 29.5979ZM50.793 33.8596C50.9488 34.0303 51.1585 34.126 51.377 34.126C51.5955 34.126 51.8052 34.0303 51.961 33.8596C52.1142 33.6859 52.2 33.4521 52.2 33.2085C52.2 32.965 52.1142 32.7312 51.961 32.5575C51.8052 32.3868 51.5955 32.2911 51.377 32.2911C51.1585 32.2911 50.9488 32.3868 50.793 32.5575C50.475 33.0302 50.475 33.5051 50.793 33.8596ZM46.865 29.5979C47.0208 29.7686 47.2305 29.8643 47.449 29.8643C47.6675 29.8643 47.8772 29.7686 48.033 29.5979C48.1862 29.4242 48.272 29.1904 48.272 28.9468C48.272 28.7033 48.1862 28.4695 48.033 28.2958C47.8772 28.1251 47.6675 28.0294 47.449 28.0294C47.2305 28.0294 47.0208 28.1251 46.865 28.2958C46.7118 28.4695 46.626 28.7033 46.626 28.9468C46.626 29.1904 46.7118 29.4242 46.865 29.5979ZM43.043 25.3384C43.1988 25.5091 43.4085 25.6048 43.627 25.6048C43.8455 25.6048 44.0552 25.5091 44.211 25.3384C44.3645 25.1647 44.4505 24.9306 44.4505 24.6868C44.4505 24.443 44.3645 24.2089 44.211 24.0352C44.0552 23.8645 43.8455 23.7688 43.627 23.7688C43.4085 23.7688 43.1988 23.8645 43.043 24.0352C42.8898 24.2089 42.804 24.4427 42.804 24.6862C42.804 24.9298 42.8898 25.1636 43.043 25.3373V25.3384ZM35.397 51.1405C35.5528 51.3112 35.7625 51.4069 35.981 51.4069C36.1995 51.4069 36.4092 51.3112 36.565 51.1405C36.7182 50.9668 36.804 50.733 36.804 50.4895C36.804 50.2459 36.7182 50.0121 36.565 49.8384C36.4092 49.6677 36.1995 49.572 35.981 49.572C35.7625 49.572 35.5528 49.6677 35.397 49.8384C34.973 50.1929 34.973 50.786 35.397 51.1405ZM31.47 46.7595C31.6257 46.9299 31.8353 47.0254 32.0535 47.0254C32.2717 47.0254 32.4812 46.9299 32.637 46.7595C32.7902 46.5858 32.876 46.352 32.876 46.1085C32.876 45.8649 32.7902 45.6311 32.637 45.4575C32.4812 45.2867 32.2715 45.191 32.053 45.191C31.8345 45.191 31.6248 45.2867 31.469 45.4575C31.3158 45.6311 31.23 45.8649 31.23 46.1085C31.23 46.352 31.3158 46.5858 31.469 46.7595H31.47ZM39.22 46.7595C39.3758 46.9302 39.5855 47.0259 39.804 47.0259C40.0225 47.0259 40.2322 46.9302 40.388 46.7595C40.5412 46.5858 40.627 46.352 40.627 46.1085C40.627 45.8649 40.5412 45.6311 40.388 45.4575C40.2322 45.2867 40.0225 45.191 39.804 45.191C39.5855 45.191 39.3758 45.2867 39.22 45.4575C39.0668 45.6311 38.981 45.8649 38.981 46.1085C38.981 46.352 39.0668 46.5858 39.22 46.7595ZM35.397 42.4989C35.5528 42.6696 35.7625 42.7653 35.981 42.7653C36.1995 42.7653 36.4092 42.6696 36.565 42.4989C36.7182 42.3252 36.804 42.0914 36.804 41.8479C36.804 41.6043 36.7182 41.3705 36.565 41.1969C36.4092 41.0261 36.1995 40.9304 35.981 40.9304C35.7625 40.9304 35.5528 41.0261 35.397 41.1969C34.973 41.5514 34.973 42.1444 35.397 42.4989ZM31.47 42.4989C31.6257 42.6693 31.8353 42.7648 32.0535 42.7648C32.2717 42.7648 32.4812 42.6693 32.637 42.4989C32.7902 42.3252 32.876 42.0914 32.876 41.8479C32.876 41.6043 32.7902 41.3705 32.637 41.1969C32.4812 41.0261 32.2715 40.9304 32.053 40.9304C31.8345 40.9304 31.6248 41.0261 31.469 41.1969C31.3158 41.3705 31.23 41.6043 31.23 41.8479C31.23 42.0914 31.3158 42.3252 31.469 42.4989H31.47ZM35.397 46.7595C35.5528 46.9302 35.7625 47.0259 35.981 47.0259C36.1995 47.0259 36.4092 46.9302 36.565 46.7595C36.7182 46.5858 36.804 46.352 36.804 46.1085C36.804 45.8649 36.7182 45.6311 36.565 45.4575C36.4092 45.2867 36.1995 45.191 35.981 45.191C35.7625 45.191 35.5528 45.2867 35.397 45.4575C34.973 45.8131 34.973 46.405 35.397 46.7595ZM35.397 38.2372C35.5528 38.4079 35.7625 38.5036 35.981 38.5036C36.1995 38.5036 36.4092 38.4079 36.565 38.2372C36.7182 38.0635 36.804 37.8297 36.804 37.5862C36.804 37.3426 36.7182 37.1088 36.565 36.9352C36.4092 36.7644 36.1995 36.6687 35.981 36.6687C35.7625 36.6687 35.5528 36.7644 35.397 36.9352C34.973 37.2908 34.973 37.8827 35.397 38.2372ZM39.22 42.4989C39.3758 42.6696 39.5855 42.7653 39.804 42.7653C40.0225 42.7653 40.2322 42.6696 40.388 42.4989C40.5412 42.3252 40.627 42.0914 40.627 41.8479C40.627 41.6043 40.5412 41.3705 40.388 41.1969C40.2322 41.0261 40.0225 40.9304 39.804 40.9304C39.5855 40.9304 39.3758 41.0261 39.22 41.1969C39.0668 41.3705 38.981 41.6043 38.981 41.8479C38.981 42.0914 39.0668 42.3252 39.22 42.4989ZM27.646 42.4989C27.8018 42.6696 28.0115 42.7653 28.23 42.7653C28.4485 42.7653 28.6582 42.6696 28.814 42.4989C28.9672 42.3252 29.053 42.0914 29.053 41.8479C29.053 41.6043 28.9672 41.3705 28.814 41.1969C28.6582 41.0261 28.4485 40.9304 28.23 40.9304C28.0115 40.9304 27.8018 41.0261 27.646 41.1969C27.4928 41.3705 27.407 41.6043 27.407 41.8479C27.407 42.0914 27.4928 42.3252 27.646 42.4989ZM31.469 38.2372C31.6248 38.4079 31.8345 38.5036 32.053 38.5036C32.2715 38.5036 32.4812 38.4079 32.637 38.2372C32.7902 38.0635 32.876 37.8297 32.876 37.5862C32.876 37.3426 32.7902 37.1088 32.637 36.9352C32.4812 36.7644 32.2715 36.6687 32.053 36.6687C31.8345 36.6687 31.6248 36.7644 31.469 36.9352C31.3158 37.1088 31.23 37.3426 31.23 37.5862C31.23 37.8297 31.3158 38.0635 31.469 38.2372Z" fill="#0A3B3C"/>
<path d="M43.041 42.4988C43.1968 42.6696 43.4065 42.7653 43.625 42.7653C43.8434 42.7653 44.0532 42.6696 44.209 42.4988C44.3621 42.3252 44.448 42.0914 44.448 41.8478C44.448 41.6043 44.3621 41.3705 44.209 41.1968C44.0532 41.026 43.8434 40.9304 43.625 40.9304C43.4065 40.9304 43.1968 41.026 43.041 41.1968C42.8878 41.3705 42.802 41.6043 42.802 41.8478C42.802 42.0914 42.8878 42.3252 43.041 42.4988ZM39.22 38.2371C39.3757 38.4075 39.5852 38.503 39.8035 38.503C40.0217 38.503 40.2312 38.4075 40.387 38.2371C40.5401 38.0634 40.626 37.8296 40.626 37.5861C40.626 37.3426 40.5401 37.1088 40.387 36.9351C40.2312 36.7643 40.0214 36.6687 39.803 36.6687C39.5845 36.6687 39.3748 36.7643 39.219 36.9351C39.0658 37.1088 38.98 37.3426 38.98 37.5861C38.98 37.8296 39.0658 38.0634 39.219 38.2371H39.22ZM35.397 33.8595C35.5528 34.0302 35.7625 34.1259 35.981 34.1259C36.1994 34.1259 36.4092 34.0302 36.565 33.8595C36.7181 33.6858 36.804 33.452 36.804 33.2085C36.804 32.9649 36.7181 32.7311 36.565 32.5574C36.4092 32.3867 36.1994 32.291 35.981 32.291C35.7625 32.291 35.5528 32.3867 35.397 32.5574C35.078 32.9119 34.972 33.505 35.397 33.8595ZM23.823 55.401C23.9788 55.5717 24.1885 55.6674 24.407 55.6674C24.6254 55.6674 24.8352 55.5717 24.991 55.401C25.1441 55.2273 25.23 54.9935 25.23 54.75C25.23 54.5064 25.1441 54.2726 24.991 54.099C24.8352 53.9282 24.6254 53.8325 24.407 53.8325C24.1885 53.8325 23.9788 53.9282 23.823 54.099C23.6698 54.2726 23.584 54.5064 23.584 54.75C23.584 54.9935 23.6698 55.2273 23.823 55.401ZM31.468 55.401C31.6238 55.5717 31.8335 55.6674 32.052 55.6674C32.2704 55.6674 32.4802 55.5717 32.636 55.401C32.7891 55.2273 32.875 54.9935 32.875 54.75C32.875 54.5064 32.7891 54.2726 32.636 54.099C32.4802 53.9282 32.2704 53.8325 32.052 53.8325C31.8335 53.8325 31.6238 53.9282 31.468 54.099C31.3148 54.2726 31.229 54.5064 31.229 54.75C31.229 54.9935 31.3148 55.2273 31.468 55.401ZM27.646 51.1404C27.8018 51.3111 28.0115 51.4068 28.23 51.4068C28.4484 51.4068 28.6582 51.3111 28.814 51.1404C28.9671 50.9667 29.053 50.7329 29.053 50.4894C29.053 50.2458 28.9671 50.012 28.814 49.8384C28.6582 49.6676 28.4484 49.5719 28.23 49.5719C28.0115 49.5719 27.8018 49.6676 27.646 49.8384C27.4928 50.012 27.407 50.2458 27.407 50.4894C27.407 50.7329 27.4928 50.9667 27.646 51.1404ZM23.823 51.1404C23.9788 51.3111 24.1885 51.4068 24.407 51.4068C24.6254 51.4068 24.8352 51.3111 24.991 51.1404C25.1441 50.9667 25.23 50.7329 25.23 50.4894C25.23 50.2458 25.1441 50.012 24.991 49.8384C24.8352 49.6676 24.6254 49.5719 24.407 49.5719C24.1885 49.5719 23.9788 49.6676 23.823 49.8384C23.6698 50.012 23.584 50.2458 23.584 50.4894C23.584 50.7329 23.6698 50.9667 23.823 51.1404ZM27.646 55.401C27.8018 55.5717 28.0115 55.6674 28.23 55.6674C28.4484 55.6674 28.6582 55.5717 28.814 55.401C28.9671 55.2273 29.053 54.9935 29.053 54.75C29.053 54.5064 28.9671 54.2726 28.814 54.099C28.6582 53.9282 28.4484 53.8325 28.23 53.8325C28.0115 53.8325 27.8018 53.9282 27.646 54.099C27.4928 54.2726 27.407 54.5064 27.407 54.75C27.407 54.9935 27.4928 55.2273 27.646 55.401ZM27.646 46.7616C27.8018 46.9324 28.0115 47.0281 28.23 47.0281C28.4484 47.0281 28.6582 46.9324 28.814 46.7616C28.9671 46.588 29.053 46.3542 29.053 46.1106C29.053 45.8671 28.9671 45.6333 28.814 45.4596C28.6582 45.2889 28.4484 45.1932 28.23 45.1932C28.0115 45.1932 27.8018 45.2889 27.646 45.4596C27.4928 45.6333 27.407 45.8671 27.407 46.1106C27.407 46.3542 27.4928 46.588 27.646 46.7616ZM31.468 51.1404C31.6238 51.3111 31.8335 51.4068 32.052 51.4068C32.2704 51.4068 32.4802 51.3111 32.636 51.1404C32.7891 50.9667 32.875 50.7329 32.875 50.4894C32.875 50.2458 32.7891 50.012 32.636 49.8384C32.4802 49.6676 32.2704 49.5719 32.052 49.5719C31.8335 49.5719 31.6238 49.6676 31.468 49.8384C31.3148 50.012 31.229 50.2458 31.229 50.4894C31.229 50.7329 31.3148 50.9667 31.468 51.1404ZM19.895 51.1404C20.0508 51.3111 20.2605 51.4068 20.479 51.4068C20.6974 51.4068 20.9072 51.3111 21.063 51.1404C21.2161 50.9667 21.302 50.7329 21.302 50.4894C21.302 50.2458 21.2161 50.012 21.063 49.8384C20.9072 49.6676 20.6974 49.5719 20.479 49.5719C20.2605 49.5719 20.0508 49.6676 19.895 49.8384C19.7418 50.012 19.656 50.2458 19.656 50.4894C19.656 50.7329 19.7418 50.9667 19.895 51.1404ZM23.823 46.7616C23.9788 46.9324 24.1885 47.0281 24.407 47.0281C24.6254 47.0281 24.8352 46.9324 24.991 46.7616C25.1441 46.588 25.23 46.3542 25.23 46.1106C25.23 45.8671 25.1441 45.6333 24.991 45.4596C24.8352 45.2889 24.6254 45.1932 24.407 45.1932C24.1885 45.1932 23.9788 45.2889 23.823 45.4596C23.6698 45.6333 23.584 45.8671 23.584 46.1106C23.584 46.3542 23.6698 46.588 23.823 46.7616ZM35.397 51.1404C35.5528 51.3111 35.7625 51.4068 35.981 51.4068C36.1994 51.4068 36.4092 51.3111 36.565 51.1404C36.7181 50.9667 36.804 50.7329 36.804 50.4894C36.804 50.2458 36.7181 50.012 36.565 49.8384C36.4092 49.6676 36.1994 49.5719 35.981 49.5719C35.7625 49.5719 35.5528 49.6676 35.397 49.8384C34.972 50.1929 34.972 50.7859 35.397 51.1404ZM31.468 46.7616C31.6238 46.9324 31.8335 47.0281 32.052 47.0281C32.2704 47.0281 32.4802 46.9324 32.636 46.7616C32.7891 46.588 32.875 46.3542 32.875 46.1106C32.875 45.8671 32.7891 45.6333 32.636 45.4596C32.4802 45.2889 32.2704 45.1932 32.052 45.1932C31.8335 45.1932 31.6238 45.2889 31.468 45.4596C31.3148 45.6333 31.229 45.8671 31.229 46.1106C31.229 46.3542 31.3148 46.588 31.468 46.7616ZM27.646 42.5011C27.8018 42.6718 28.0115 42.7675 28.23 42.7675C28.4484 42.7675 28.6582 42.6718 28.814 42.5011C28.9671 42.3274 29.053 42.0936 29.053 41.85C29.053 41.6065 28.9671 41.3727 28.814 41.199C28.6582 41.0283 28.4484 40.9326 28.23 40.9326C28.0115 40.9326 27.8018 41.0283 27.646 41.199C27.4928 41.3727 27.407 41.6065 27.407 41.85C27.407 42.0936 27.4928 42.3274 27.646 42.5011ZM19.895 55.401C20.0508 55.5717 20.2605 55.6674 20.479 55.6674C20.6974 55.6674 20.9072 55.5717 21.063 55.401C21.2161 55.2273 21.302 54.9935 21.302 54.75C21.302 54.5064 21.2161 54.2726 21.063 54.099C20.9072 53.9282 20.6974 53.8325 20.479 53.8325C20.2605 53.8325 20.0508 53.9282 19.895 54.099C19.7418 54.2726 19.656 54.5064 19.656 54.75C19.656 54.9935 19.7418 55.2273 19.895 55.401ZM16.074 55.401C16.2298 55.5717 16.4395 55.6674 16.658 55.6674C16.8764 55.6674 17.0862 55.5717 17.242 55.401C17.3951 55.2273 17.481 54.9935 17.481 54.75C17.481 54.5064 17.3951 54.2726 17.242 54.099C17.0862 53.9282 16.8764 53.8325 16.658 53.8325C16.4395 53.8325 16.2298 53.9282 16.074 54.099C15.9208 54.2726 15.835 54.5064 15.835 54.75C15.835 54.9935 15.9208 55.2273 16.074 55.401Z" fill="#0A3B3C"/>
<path d="M23.824 55.4008C23.9798 55.5715 24.1895 55.6672 24.408 55.6672C24.6265 55.6672 24.8362 55.5715 24.992 55.4008C25.1452 55.2271 25.231 54.9933 25.231 54.7497C25.231 54.5062 25.1452 54.2724 24.992 54.0987C24.8362 53.928 24.6265 53.8323 24.408 53.8323C24.1895 53.8323 23.9798 53.928 23.824 54.0987C23.6708 54.2724 23.585 54.5062 23.585 54.7497C23.585 54.9933 23.6708 55.2271 23.824 55.4008ZM19.896 51.1402C20.0518 51.3109 20.2615 51.4066 20.48 51.4066C20.6985 51.4066 20.9082 51.3109 21.064 51.1402C21.2172 50.9665 21.303 50.7327 21.303 50.4892C21.303 50.2456 21.2172 50.0118 21.064 49.8381C20.9082 49.6674 20.6985 49.5717 20.48 49.5717C20.2615 49.5717 20.0518 49.6674 19.896 49.8381C19.7428 50.0118 19.657 50.2456 19.657 50.4892C19.657 50.7327 19.7428 50.9665 19.896 51.1402ZM43.044 25.3392C43.1998 25.5099 43.4095 25.6056 43.628 25.6056C43.8465 25.6056 44.0562 25.5099 44.212 25.3392C44.3652 25.1655 44.451 24.9317 44.451 24.6882C44.451 24.4446 44.3652 24.2108 44.212 24.0372C44.0562 23.8664 43.8465 23.7707 43.628 23.7707C43.4095 23.7707 43.1998 23.8664 43.044 24.0372C42.8908 24.2108 42.805 24.4446 42.805 24.6882C42.805 24.9317 42.8908 25.1655 43.044 25.3392ZM39.222 21.0764C39.3778 21.2471 39.5875 21.3428 39.806 21.3428C40.0245 21.3428 40.2342 21.2471 40.39 21.0764C40.5432 20.9027 40.629 20.6689 40.629 20.4253C40.629 20.1818 40.5432 19.948 40.39 19.7743C40.2342 19.6036 40.0245 19.5079 39.806 19.5079C39.5875 19.5079 39.3778 19.6036 39.222 19.7743C39.0688 19.948 38.983 20.1818 38.983 20.4253C38.983 20.6689 39.0688 20.9027 39.222 21.0764ZM46.867 21.0764C47.0228 21.2471 47.2325 21.3428 47.451 21.3428C47.6695 21.3428 47.8792 21.2471 48.035 21.0764C48.1882 20.9027 48.274 20.6689 48.274 20.4253C48.274 20.1818 48.1882 19.948 48.035 19.7743C47.8792 19.6036 47.6695 19.5079 47.451 19.5079C47.2325 19.5079 47.0228 19.6036 46.867 19.7743C46.7138 19.948 46.628 20.1818 46.628 20.4253C46.628 20.6689 46.7138 20.9027 46.867 21.0764ZM43.044 16.6987C43.1998 16.8695 43.4095 16.9652 43.628 16.9652C43.8465 16.9652 44.0562 16.8695 44.212 16.6987C44.3655 16.525 44.4515 16.291 44.4515 16.0472C44.4515 15.8033 44.3655 15.5693 44.212 15.3956C44.0562 15.2248 43.8465 15.1292 43.628 15.1292C43.4095 15.1292 43.1998 15.2248 43.044 15.3956C42.8908 15.5692 42.805 15.803 42.805 16.0466C42.805 16.2901 42.8908 16.5239 43.044 16.6976V16.6987ZM39.222 16.6987C39.3778 16.8695 39.5875 16.9652 39.806 16.9652C40.0245 16.9652 40.2342 16.8695 40.39 16.6987C40.5435 16.525 40.6295 16.291 40.6295 16.0472C40.6295 15.8033 40.5435 15.5693 40.39 15.3956C40.2342 15.2248 40.0245 15.1292 39.806 15.1292C39.5875 15.1292 39.3778 15.2248 39.222 15.3956C39.0688 15.5692 38.983 15.803 38.983 16.0466C38.983 16.2901 39.0688 16.5239 39.222 16.6976V16.6987ZM43.044 21.0764C43.1998 21.2471 43.4095 21.3428 43.628 21.3428C43.8465 21.3428 44.0562 21.2471 44.212 21.0764C44.3652 20.9027 44.451 20.6689 44.451 20.4253C44.451 20.1818 44.3652 19.948 44.212 19.7743C44.0562 19.6036 43.8465 19.5079 43.628 19.5079C43.4095 19.5079 43.1998 19.6036 43.044 19.7743C42.8908 19.948 42.805 20.1818 42.805 20.4253C42.805 20.6689 42.8908 20.9027 43.044 21.0764ZM46.867 16.6987C47.0228 16.8695 47.2325 16.9652 47.451 16.9652C47.6695 16.9652 47.8792 16.8695 48.035 16.6987C48.1885 16.525 48.2745 16.291 48.2745 16.0472C48.2745 15.8033 48.1885 15.5693 48.035 15.3956C47.8792 15.2248 47.6695 15.1292 47.451 15.1292C47.2325 15.1292 47.0228 15.2248 46.867 15.3956C46.7138 15.5692 46.628 15.803 46.628 16.0466C46.628 16.2901 46.7138 16.5239 46.867 16.6976V16.6987ZM35.399 16.6987C35.5548 16.8695 35.7645 16.9652 35.983 16.9652C36.2015 16.9652 36.4112 16.8695 36.567 16.6987C36.7205 16.525 36.8065 16.291 36.8065 16.0472C36.8065 15.8033 36.7205 15.5693 36.567 15.3956C36.4112 15.2248 36.2015 15.1292 35.983 15.1292C35.7645 15.1292 35.5548 15.2248 35.399 15.3956C35.08 15.7512 34.974 16.3431 35.399 16.6976V16.6987ZM50.793 16.6987C50.9488 16.8695 51.1585 16.9652 51.377 16.9652C51.5955 16.9652 51.8052 16.8695 51.961 16.6987C52.1145 16.525 52.2005 16.291 52.2005 16.0472C52.2005 15.8033 52.1145 15.5693 51.961 15.3956C51.8052 15.2248 51.5955 15.1292 51.377 15.1292C51.1585 15.1292 50.9488 15.2248 50.793 15.3956C50.6398 15.5692 50.554 15.803 50.554 16.0466C50.554 16.2901 50.6398 16.5239 50.793 16.6976V16.6987ZM35.397 33.8593C35.5528 34.03 35.7625 34.1257 35.981 34.1257C36.1995 34.1257 36.4092 34.03 36.565 33.8593C36.7182 33.6856 36.804 33.4518 36.804 33.2082C36.804 32.9647 36.7182 32.7309 36.565 32.5572C36.4092 32.3865 36.1995 32.2908 35.981 32.2908C35.7625 32.2908 35.5528 32.3865 35.397 32.5572C35.078 32.9117 34.972 33.5048 35.397 33.8593ZM31.47 29.5975C31.6257 29.768 31.8353 29.8634 32.0535 29.8634C32.2717 29.8634 32.4812 29.768 32.637 29.5975C32.7902 29.4239 32.876 29.1901 32.876 28.9465C32.876 28.703 32.7902 28.4692 32.637 28.2955C32.4812 28.1248 32.2715 28.0291 32.053 28.0291C31.8345 28.0291 31.6248 28.1248 31.469 28.2955C31.3158 28.4692 31.23 28.703 31.23 28.9465C31.23 29.1901 31.3158 29.4239 31.469 29.5975H31.47ZM39.22 29.5975C39.3758 29.7683 39.5855 29.864 39.804 29.864C40.0225 29.864 40.2322 29.7683 40.388 29.5975C40.5412 29.4239 40.627 29.1901 40.627 28.9465C40.627 28.703 40.5412 28.4692 40.388 28.2955C40.2322 28.1248 40.0225 28.0291 39.804 28.0291C39.5855 28.0291 39.3758 28.1248 39.22 28.2955C39.0668 28.4692 38.981 28.703 38.981 28.9465C38.981 29.1901 39.0668 29.4239 39.22 29.5975ZM35.397 25.3381C35.5528 25.5088 35.7625 25.6045 35.981 25.6045C36.1995 25.6045 36.4092 25.5088 36.565 25.3381C36.7185 25.1644 36.8045 24.9303 36.8045 24.6865C36.8045 24.4427 36.7185 24.2086 36.565 24.0349C36.4092 23.8642 36.1995 23.7685 35.981 23.7685C35.7625 23.7685 35.5528 23.8642 35.397 24.0349C34.973 24.3905 34.973 24.9825 35.397 25.337V25.3381ZM31.47 25.3381C31.6257 25.5085 31.8353 25.604 32.0535 25.604C32.2717 25.604 32.4812 25.5085 32.637 25.3381C32.7905 25.1644 32.8765 24.9303 32.8765 24.6865C32.8765 24.4427 32.7905 24.2086 32.637 24.0349C32.4812 23.8642 32.2715 23.7685 32.053 23.7685C31.8345 23.7685 31.6248 23.8642 31.469 24.0349C31.3158 24.2086 31.23 24.4424 31.23 24.6859C31.23 24.9295 31.3158 25.1633 31.469 25.337L31.47 25.3381ZM35.397 29.5975C35.5528 29.7683 35.7625 29.864 35.981 29.864C36.1995 29.864 36.4092 29.7683 36.565 29.5975C36.7182 29.4239 36.804 29.1901 36.804 28.9465C36.804 28.703 36.7182 28.4692 36.565 28.2955C36.4092 28.1248 36.1995 28.0291 35.981 28.0291C35.7625 28.0291 35.5528 28.1248 35.397 28.2955C34.973 28.6511 34.973 29.2431 35.397 29.5975ZM35.397 21.0764C35.5528 21.2471 35.7625 21.3428 35.981 21.3428C36.1995 21.3428 36.4092 21.2471 36.565 21.0764C36.7182 20.9027 36.804 20.6689 36.804 20.4253C36.804 20.1818 36.7182 19.948 36.565 19.7743C36.4092 19.6036 36.1995 19.5079 35.981 19.5079C35.7625 19.5079 35.5528 19.6036 35.397 19.7743C34.973 20.1288 34.973 20.7219 35.397 21.0764ZM39.22 25.3381C39.3758 25.5088 39.5855 25.6045 39.804 25.6045C40.0225 25.6045 40.2322 25.5088 40.388 25.3381C40.5415 25.1644 40.6275 24.9303 40.6275 24.6865C40.6275 24.4427 40.5415 24.2086 40.388 24.0349C40.2322 23.8642 40.0225 23.7685 39.804 23.7685C39.5855 23.7685 39.3758 23.8642 39.22 24.0349C39.0668 24.2086 38.981 24.4424 38.981 24.6859C38.981 24.9295 39.0668 25.1633 39.22 25.337V25.3381ZM27.646 25.3381C27.8018 25.5088 28.0115 25.6045 28.23 25.6045C28.4485 25.6045 28.6582 25.5088 28.814 25.3381C28.9675 25.1644 29.0535 24.9303 29.0535 24.6865C29.0535 24.4427 28.9675 24.2086 28.814 24.0349C28.6582 23.8642 28.4485 23.7685 28.23 23.7685C28.0115 23.7685 27.8018 23.8642 27.646 24.0349C27.4928 24.2086 27.407 24.4424 27.407 24.6859C27.407 24.9295 27.4928 25.1633 27.646 25.337V25.3381ZM31.469 21.0764C31.6248 21.2471 31.8345 21.3428 32.053 21.3428C32.2715 21.3428 32.4812 21.2471 32.637 21.0764C32.7902 20.9027 32.876 20.6689 32.876 20.4253C32.876 20.1818 32.7902 19.948 32.637 19.7743C32.4812 19.6036 32.2715 19.5079 32.053 19.5079C31.8345 19.5079 31.6248 19.6036 31.469 19.7743C31.3158 19.948 31.23 20.1818 31.23 20.4253C31.23 20.6689 31.3158 20.9027 31.469 21.0764Z" fill="#0A3B3C"/>
<path d="M43.041 25.3381C43.1968 25.5088 43.4065 25.6045 43.625 25.6045C43.8435 25.6045 44.0532 25.5088 44.209 25.3381C44.3625 25.1644 44.4485 24.9303 44.4485 24.6865C44.4485 24.4427 44.3625 24.2086 44.209 24.0349C44.0532 23.8642 43.8435 23.7685 43.625 23.7685C43.4065 23.7685 43.1968 23.8642 43.041 24.0349C42.8878 24.2086 42.802 24.4424 42.802 24.6859C42.802 24.9295 42.8878 25.1633 43.041 25.337V25.3381ZM39.22 21.0764C39.3757 21.2468 39.5853 21.3422 39.8035 21.3422C40.0217 21.3422 40.2312 21.2468 40.387 21.0764C40.5402 20.9027 40.626 20.6689 40.626 20.4253C40.626 20.1818 40.5402 19.948 40.387 19.7743C40.2312 19.6036 40.0215 19.5079 39.803 19.5079C39.5845 19.5079 39.3748 19.6036 39.219 19.7743C39.0658 19.948 38.98 20.1818 38.98 20.4253C38.98 20.6689 39.0658 20.9027 39.219 21.0764H39.22ZM35.397 16.6987C35.5528 16.8695 35.7625 16.9652 35.981 16.9652C36.1995 16.9652 36.4092 16.8695 36.565 16.6987C36.7185 16.525 36.8045 16.291 36.8045 16.0472C36.8045 15.8033 36.7185 15.5693 36.565 15.3956C36.4092 15.2248 36.1995 15.1292 35.981 15.1292C35.7625 15.1292 35.5528 15.2248 35.397 15.3956C35.078 15.7512 34.972 16.3431 35.397 16.6976V16.6987ZM27.646 42.5008C27.8018 42.6716 28.0115 42.7673 28.23 42.7673C28.4485 42.7673 28.6582 42.6716 28.814 42.5008C28.9672 42.3272 29.053 42.0934 29.053 41.8498C29.053 41.6063 28.9672 41.3725 28.814 41.1988C28.6582 41.028 28.4485 40.9324 28.23 40.9324C28.0115 40.9324 27.8018 41.028 27.646 41.1988C27.4928 41.3725 27.407 41.6063 27.407 41.8498C27.407 42.0934 27.4928 42.3272 27.646 42.5008ZM23.823 38.2369C23.9788 38.4076 24.1885 38.5033 24.407 38.5033C24.6255 38.5033 24.8352 38.4076 24.991 38.2369C25.1442 38.0632 25.23 37.8294 25.23 37.5859C25.23 37.3423 25.1442 37.1085 24.991 36.9349C24.8352 36.7641 24.6255 36.6684 24.407 36.6684C24.1885 36.6684 23.9788 36.7641 23.823 36.9349C23.6698 37.1085 23.584 37.3423 23.584 37.5859C23.584 37.8294 23.6698 38.0632 23.823 38.2369ZM31.468 38.2369C31.6238 38.4076 31.8335 38.5033 32.052 38.5033C32.2705 38.5033 32.4802 38.4076 32.636 38.2369C32.7892 38.0632 32.875 37.8294 32.875 37.5859C32.875 37.3423 32.7892 37.1085 32.636 36.9349C32.4802 36.7641 32.2705 36.6684 32.052 36.6684C31.8335 36.6684 31.6238 36.7641 31.468 36.9349C31.3148 37.1085 31.229 37.3423 31.229 37.5859C31.229 37.8294 31.3148 38.0632 31.468 38.2369ZM27.646 33.8593C27.8018 34.03 28.0115 34.1257 28.23 34.1257C28.4485 34.1257 28.6582 34.03 28.814 33.8593C28.9672 33.6856 29.053 33.4518 29.053 33.2082C29.053 32.9647 28.9672 32.7309 28.814 32.5572C28.6582 32.3865 28.4485 32.2908 28.23 32.2908C28.0115 32.2908 27.8018 32.3865 27.646 32.5572C27.327 33.0299 27.327 33.5048 27.646 33.8593ZM23.823 33.8593C23.9788 34.03 24.1885 34.1257 24.407 34.1257C24.6255 34.1257 24.8352 34.03 24.991 33.8593C25.1442 33.6856 25.23 33.4518 25.23 33.2082C25.23 32.9647 25.1442 32.7309 24.991 32.5572C24.8352 32.3865 24.6255 32.2908 24.407 32.2908C24.1885 32.2908 23.9788 32.3865 23.823 32.5572C23.505 33.0299 23.505 33.5048 23.823 33.8593ZM27.646 38.2369C27.8018 38.4076 28.0115 38.5033 28.23 38.5033C28.4485 38.5033 28.6582 38.4076 28.814 38.2369C28.9672 38.0632 29.053 37.8294 29.053 37.5859C29.053 37.3423 28.9672 37.1085 28.814 36.9349C28.6582 36.7641 28.4485 36.6684 28.23 36.6684C28.0115 36.6684 27.8018 36.7641 27.646 36.9349C27.4928 37.1085 27.407 37.3423 27.407 37.5859C27.407 37.8294 27.4928 38.0632 27.646 38.2369ZM27.646 29.5975C27.8018 29.7683 28.0115 29.864 28.23 29.864C28.4485 29.864 28.6582 29.7683 28.814 29.5975C28.9672 29.4239 29.053 29.1901 29.053 28.9465C29.053 28.703 28.9672 28.4692 28.814 28.2955C28.6582 28.1248 28.4485 28.0291 28.23 28.0291C28.0115 28.0291 27.8018 28.1248 27.646 28.2955C27.4928 28.4692 27.407 28.703 27.407 28.9465C27.407 29.1901 27.4928 29.4239 27.646 29.5975ZM31.468 33.8593C31.6238 34.03 31.8335 34.1257 32.052 34.1257C32.2705 34.1257 32.4802 34.03 32.636 33.8593C32.7892 33.6856 32.875 33.4518 32.875 33.2082C32.875 32.9647 32.7892 32.7309 32.636 32.5572C32.4802 32.3865 32.2705 32.2908 32.052 32.2908C31.8335 32.2908 31.6238 32.3865 31.468 32.5572C31.15 33.0299 31.15 33.5048 31.468 33.8593ZM19.895 33.8593C20.0508 34.03 20.2605 34.1257 20.479 34.1257C20.6975 34.1257 20.9072 34.03 21.063 33.8593C21.2162 33.6856 21.302 33.4518 21.302 33.2082C21.302 32.9647 21.2162 32.7309 21.063 32.5572C20.9072 32.3865 20.6975 32.2908 20.479 32.2908C20.2605 32.2908 20.0508 32.3865 19.895 32.5572C19.576 33.0299 19.576 33.5048 19.895 33.8593ZM23.823 29.5975C23.9788 29.7683 24.1885 29.864 24.407 29.864C24.6255 29.864 24.8352 29.7683 24.991 29.5975C25.1442 29.4239 25.23 29.1901 25.23 28.9465C25.23 28.703 25.1442 28.4692 24.991 28.2955C24.8352 28.1248 24.6255 28.0291 24.407 28.0291C24.1885 28.0291 23.9788 28.1248 23.823 28.2955C23.6698 28.4692 23.584 28.703 23.584 28.9465C23.584 29.1901 23.6698 29.4239 23.823 29.5975ZM35.397 33.8593C35.5528 34.03 35.7625 34.1257 35.981 34.1257C36.1995 34.1257 36.4092 34.03 36.565 33.8593C36.7182 33.6856 36.804 33.4518 36.804 33.2082C36.804 32.9647 36.7182 32.7309 36.565 32.5572C36.4092 32.3865 36.1995 32.2908 35.981 32.2908C35.7625 32.2908 35.5528 32.3865 35.397 32.5572C35.078 32.9117 34.972 33.5048 35.397 33.8593ZM31.468 29.5975C31.6238 29.7683 31.8335 29.864 32.052 29.864C32.2705 29.864 32.4802 29.7683 32.636 29.5975C32.7892 29.4239 32.875 29.1901 32.875 28.9465C32.875 28.703 32.7892 28.4692 32.636 28.2955C32.4802 28.1248 32.2705 28.0291 32.052 28.0291C31.8335 28.0291 31.6238 28.1248 31.468 28.2955C31.3148 28.4692 31.229 28.703 31.229 28.9465C31.229 29.1901 31.3148 29.4239 31.468 29.5975ZM27.646 25.3381C27.8018 25.5088 28.0115 25.6045 28.23 25.6045C28.4485 25.6045 28.6582 25.5088 28.814 25.3381C28.9675 25.1644 29.0535 24.9303 29.0535 24.6865C29.0535 24.4427 28.9675 24.2086 28.814 24.0349C28.6582 23.8642 28.4485 23.7685 28.23 23.7685C28.0115 23.7685 27.8018 23.8642 27.646 24.0349C27.4928 24.2086 27.407 24.4424 27.407 24.6859C27.407 24.9295 27.4928 25.1633 27.646 25.337V25.3381ZM19.895 51.1402C20.0508 51.3109 20.2605 51.4066 20.479 51.4066C20.6975 51.4066 20.9072 51.3109 21.063 51.1402C21.2162 50.9665 21.302 50.7327 21.302 50.4892C21.302 50.2456 21.2162 50.0118 21.063 49.8381C20.9072 49.6674 20.6975 49.5717 20.479 49.5717C20.2605 49.5717 20.0508 49.6674 19.895 49.8381C19.7418 50.0118 19.656 50.2456 19.656 50.4892C19.656 50.7327 19.7418 50.9665 19.895 51.1402ZM16.073 46.7592C16.2288 46.9299 16.4385 47.0256 16.657 47.0256C16.8755 47.0256 17.0852 46.9299 17.241 46.7592C17.3942 46.5855 17.48 46.3517 17.48 46.1082C17.48 45.8646 17.3942 45.6308 17.241 45.4572C17.0852 45.2864 16.8755 45.1907 16.657 45.1907C16.4385 45.1907 16.2288 45.2864 16.073 45.4572C15.9198 45.6308 15.834 45.8646 15.834 46.1082C15.834 46.3517 15.9198 46.5855 16.073 46.7592ZM23.824 46.7592C23.9798 46.9299 24.1895 47.0256 24.408 47.0256C24.6265 47.0256 24.8362 46.9299 24.992 46.7592C25.1452 46.5855 25.231 46.3517 25.231 46.1082C25.231 45.8646 25.1452 45.6308 24.992 45.4572C24.8362 45.2864 24.6265 45.1907 24.408 45.1907C24.1895 45.1907 23.9798 45.2864 23.824 45.4572C23.6708 45.6308 23.585 45.8646 23.585 46.1082C23.585 46.3517 23.6708 46.5855 23.824 46.7592ZM19.895 42.4986C20.0508 42.6693 20.2605 42.765 20.479 42.765C20.6975 42.765 20.9072 42.6693 21.063 42.4986C21.2162 42.3249 21.302 42.0911 21.302 41.8476C21.302 41.604 21.2162 41.3702 21.063 41.1966C20.9072 41.0258 20.6975 40.9301 20.479 40.9301C20.2605 40.9301 20.0508 41.0258 19.895 41.1966C19.7418 41.3702 19.656 41.604 19.656 41.8476C19.656 42.0911 19.7418 42.3249 19.895 42.4986ZM16.073 42.4986C16.2288 42.6693 16.4385 42.765 16.657 42.765C16.8755 42.765 17.0852 42.6693 17.241 42.4986C17.3942 42.3249 17.48 42.0911 17.48 41.8476C17.48 41.604 17.3942 41.3702 17.241 41.1966C17.0852 41.0258 16.8755 40.9301 16.657 40.9301C16.4385 40.9301 16.2288 41.0258 16.073 41.1966C15.9198 41.3702 15.834 41.604 15.834 41.8476C15.834 42.0911 15.9198 42.3249 16.073 42.4986ZM19.895 46.7592C20.0508 46.9299 20.2605 47.0256 20.479 47.0256C20.6975 47.0256 20.9072 46.9299 21.063 46.7592C21.2162 46.5855 21.302 46.3517 21.302 46.1082C21.302 45.8646 21.2162 45.6308 21.063 45.4572C20.9072 45.2864 20.6975 45.1907 20.479 45.1907C20.2605 45.1907 20.0508 45.2864 19.895 45.4572C19.7418 45.6308 19.656 45.8646 19.656 46.1082C19.656 46.3517 19.7418 46.5855 19.895 46.7592ZM19.895 38.2369C20.0508 38.4076 20.2605 38.5033 20.479 38.5033C20.6975 38.5033 20.9072 38.4076 21.063 38.2369C21.2162 38.0632 21.302 37.8294 21.302 37.5859C21.302 37.3423 21.2162 37.1085 21.063 36.9349C20.9072 36.7641 20.6975 36.6684 20.479 36.6684C20.2605 36.6684 20.0508 36.7641 19.895 36.9349C19.7418 37.1085 19.656 37.3423 19.656 37.5859C19.656 37.8294 19.7418 38.0632 19.895 38.2369ZM23.824 42.4986C23.9798 42.6693 24.1895 42.765 24.408 42.765C24.6265 42.765 24.8362 42.6693 24.992 42.4986C25.1452 42.3249 25.231 42.0911 25.231 41.8476C25.231 41.604 25.1452 41.3702 24.992 41.1966C24.8362 41.0258 24.6265 40.9301 24.408 40.9301C24.1895 40.9301 23.9798 41.0258 23.824 41.1966C23.6708 41.3702 23.585 41.604 23.585 41.8476C23.585 42.0911 23.6708 42.3249 23.824 42.4986ZM16.074 38.2369C16.2298 38.4076 16.4395 38.5033 16.658 38.5033C16.8765 38.5033 17.0862 38.4076 17.242 38.2369C17.3952 38.0632 17.481 37.8294 17.481 37.5859C17.481 37.3423 17.3952 37.1085 17.242 36.9349C17.0862 36.7641 16.8765 36.6684 16.658 36.6684C16.4395 36.6684 16.2298 36.7641 16.074 36.9349C15.9208 37.1085 15.835 37.3423 15.835 37.5859C15.835 37.8294 15.9208 38.0632 16.074 38.2369Z" fill="#0A3B3C"/>
<path d="M27.647 42.4986C27.8028 42.6693 28.0125 42.765 28.231 42.765C28.4495 42.765 28.6592 42.6693 28.815 42.4986C28.9682 42.3249 29.054 42.0911 29.054 41.8476C29.054 41.604 28.9682 41.3702 28.815 41.1966C28.6592 41.0258 28.4495 40.9301 28.231 40.9301C28.0125 40.9301 27.8028 41.0258 27.647 41.1966C27.4938 41.3702 27.408 41.604 27.408 41.8476C27.408 42.0911 27.4938 42.3249 27.647 42.4986ZM23.824 38.2369C23.9798 38.4076 24.1895 38.5033 24.408 38.5033C24.6265 38.5033 24.8362 38.4076 24.992 38.2369C25.1452 38.0632 25.231 37.8294 25.231 37.5859C25.231 37.3423 25.1452 37.1085 24.992 36.9349C24.8362 36.7641 24.6265 36.6684 24.408 36.6684C24.1895 36.6684 23.9798 36.7641 23.824 36.9349C23.6708 37.1085 23.585 37.3423 23.585 37.5859C23.585 37.8294 23.6708 38.0632 23.824 38.2369ZM19.896 33.8593C20.0518 34.03 20.2615 34.1257 20.48 34.1257C20.6985 34.1257 20.9082 34.03 21.064 33.8593C21.2172 33.6856 21.303 33.4518 21.303 33.2082C21.303 32.9647 21.2172 32.7309 21.064 32.5572C20.9082 32.3865 20.6985 32.2908 20.48 32.2908C20.2615 32.2908 20.0518 32.3865 19.896 32.5572C19.578 33.0299 19.578 33.5048 19.896 33.8593ZM16.073 55.4008C16.2288 55.5715 16.4385 55.6672 16.657 55.6672C16.8755 55.6672 17.0852 55.5715 17.241 55.4008C17.3942 55.2271 17.48 54.9933 17.48 54.7497C17.48 54.5062 17.3942 54.2724 17.241 54.0987C17.0852 53.928 16.8755 53.8323 16.657 53.8323C16.4385 53.8323 16.2288 53.928 16.073 54.0987C15.9198 54.2724 15.834 54.5062 15.834 54.7497C15.834 54.9933 15.9198 55.2271 16.073 55.4008ZM16.073 51.1402C16.2288 51.3109 16.4385 51.4066 16.657 51.4066C16.8755 51.4066 17.0852 51.3109 17.241 51.1402C17.3942 50.9665 17.48 50.7327 17.48 50.4892C17.48 50.2456 17.3942 50.0118 17.241 49.8381C17.0852 49.6674 16.8755 49.5717 16.657 49.5717C16.4385 49.5717 16.2288 49.6674 16.073 49.8381C15.9198 50.0118 15.834 50.2456 15.834 50.4892C15.834 50.7327 15.9198 50.9665 16.073 51.1402ZM19.895 51.1402C20.0508 51.3109 20.2605 51.4066 20.479 51.4066C20.6975 51.4066 20.9072 51.3109 21.063 51.1402C21.2162 50.9665 21.302 50.7327 21.302 50.4892C21.302 50.2456 21.2162 50.0118 21.063 49.8381C20.9072 49.6674 20.6975 49.5717 20.479 49.5717C20.2605 49.5717 20.0508 49.6674 19.895 49.8381C19.7418 50.0118 19.656 50.2456 19.656 50.4892C19.656 50.7327 19.7418 50.9665 19.895 51.1402ZM16.073 46.7614C16.2288 46.9322 16.4385 47.0278 16.657 47.0278C16.8755 47.0278 17.0852 46.9322 17.241 46.7614C17.3942 46.5877 17.48 46.3539 17.48 46.1104C17.48 45.8668 17.3942 45.633 17.241 45.4594C17.0852 45.2886 16.8755 45.193 16.657 45.193C16.4385 45.193 16.2288 45.2886 16.073 45.4594C15.9198 45.633 15.834 45.8668 15.834 46.1104C15.834 46.3539 15.9198 46.5877 16.073 46.7614ZM35.397 16.6987C35.5528 16.8695 35.7625 16.9652 35.981 16.9652C36.1995 16.9652 36.4092 16.8695 36.565 16.6987C36.7185 16.525 36.8045 16.291 36.8045 16.0472C36.8045 15.8033 36.7185 15.5693 36.565 15.3956C36.4092 15.2248 36.1995 15.1292 35.981 15.1292C35.7625 15.1292 35.5528 15.2248 35.397 15.3956C35.078 15.7512 34.972 16.3431 35.397 16.6976V16.6987ZM27.646 25.3392C27.8018 25.5099 28.0115 25.6056 28.23 25.6056C28.4485 25.6056 28.6582 25.5099 28.814 25.3392C28.9672 25.1655 29.053 24.9317 29.053 24.6882C29.053 24.4446 28.9672 24.2108 28.814 24.0372C28.6582 23.8664 28.4485 23.7707 28.23 23.7707C28.0115 23.7707 27.8018 23.8664 27.646 24.0372C27.4928 24.2108 27.407 24.4446 27.407 24.6882C27.407 24.9317 27.4928 25.1655 27.646 25.3392ZM23.823 21.0786C23.9788 21.2493 24.1885 21.345 24.407 21.345C24.6255 21.345 24.8352 21.2493 24.991 21.0786C25.1442 20.9049 25.23 20.6711 25.23 20.4276C25.23 20.184 25.1442 19.9502 24.991 19.7766C24.8352 19.6058 24.6255 19.5101 24.407 19.5101C24.1885 19.5101 23.9788 19.6058 23.823 19.7766C23.6698 19.9502 23.584 20.184 23.584 20.4276C23.584 20.6711 23.6698 20.9049 23.823 21.0786ZM31.468 21.0786C31.6238 21.2493 31.8335 21.345 32.052 21.345C32.2705 21.345 32.4802 21.2493 32.636 21.0786C32.7892 20.9049 32.875 20.6711 32.875 20.4276C32.875 20.184 32.7892 19.9502 32.636 19.7766C32.4802 19.6058 32.2705 19.5101 32.052 19.5101C31.8335 19.5101 31.6238 19.6058 31.468 19.7766C31.3148 19.9502 31.229 20.184 31.229 20.4276C31.229 20.6711 31.3148 20.9049 31.468 21.0786ZM27.646 16.6987C27.8018 16.8695 28.0115 16.9652 28.23 16.9652C28.4485 16.9652 28.6582 16.8695 28.814 16.6987C28.9675 16.525 29.0535 16.291 29.0535 16.0472C29.0535 15.8033 28.9675 15.5693 28.814 15.3956C28.6582 15.2248 28.4485 15.1292 28.23 15.1292C28.0115 15.1292 27.8018 15.2248 27.646 15.3956C27.4928 15.5692 27.407 15.803 27.407 16.0466C27.407 16.2901 27.4928 16.5239 27.646 16.6976V16.6987ZM23.823 16.6987C23.9788 16.8695 24.1885 16.9652 24.407 16.9652C24.6255 16.9652 24.8352 16.8695 24.991 16.6987C25.1445 16.525 25.2305 16.291 25.2305 16.0472C25.2305 15.8033 25.1445 15.5693 24.991 15.3956C24.8352 15.2248 24.6255 15.1292 24.407 15.1292C24.1885 15.1292 23.9788 15.2248 23.823 15.3956C23.6698 15.5692 23.584 15.803 23.584 16.0466C23.584 16.2901 23.6698 16.5239 23.823 16.6976V16.6987ZM27.646 21.0786C27.8018 21.2493 28.0115 21.345 28.23 21.345C28.4485 21.345 28.6582 21.2493 28.814 21.0786C28.9672 20.9049 29.053 20.6711 29.053 20.4276C29.053 20.184 28.9672 19.9502 28.814 19.7766C28.6582 19.6058 28.4485 19.5101 28.23 19.5101C28.0115 19.5101 27.8018 19.6058 27.646 19.7766C27.4928 19.9502 27.407 20.184 27.407 20.4276C27.407 20.6711 27.4928 20.9049 27.646 21.0786ZM31.468 16.6987C31.6238 16.8695 31.8335 16.9652 32.052 16.9652C32.2705 16.9652 32.4802 16.8695 32.636 16.6987C32.7895 16.525 32.8755 16.291 32.8755 16.0472C32.8755 15.8033 32.7895 15.5693 32.636 15.3956C32.4802 15.2248 32.2705 15.1292 32.052 15.1292C31.8335 15.1292 31.6238 15.2248 31.468 15.3956C31.3148 15.5692 31.229 15.803 31.229 16.0466C31.229 16.2901 31.3148 16.5239 31.468 16.6976V16.6987ZM19.895 16.6987C20.0508 16.8695 20.2605 16.9652 20.479 16.9652C20.6975 16.9652 20.9072 16.8695 21.063 16.6987C21.2165 16.525 21.3025 16.291 21.3025 16.0472C21.3025 15.8033 21.2165 15.5693 21.063 15.3956C20.9072 15.2248 20.6975 15.1292 20.479 15.1292C20.2605 15.1292 20.0508 15.2248 19.895 15.3956C19.7418 15.5692 19.656 15.803 19.656 16.0466C19.656 16.2901 19.7418 16.5239 19.895 16.6976V16.6987Z" fill="#0A3B3C"/>
<path d="M35.397 16.6987C35.5528 16.8695 35.7625 16.9652 35.981 16.9652C36.1995 16.9652 36.4092 16.8695 36.565 16.6987C36.7185 16.525 36.8045 16.291 36.8045 16.0472C36.8045 15.8033 36.7185 15.5693 36.565 15.3956C36.4092 15.2248 36.1995 15.1292 35.981 15.1292C35.7625 15.1292 35.5528 15.2248 35.397 15.3956C35.078 15.7512 34.972 16.3431 35.397 16.6976V16.6987ZM19.895 33.8593C20.0508 34.03 20.2605 34.1257 20.479 34.1257C20.6975 34.1257 20.9072 34.03 21.063 33.8593C21.2162 33.6856 21.302 33.4518 21.302 33.2082C21.302 32.9647 21.2162 32.7309 21.063 32.5572C20.9072 32.3865 20.6975 32.2908 20.479 32.2908C20.2605 32.2908 20.0508 32.3865 19.895 32.5572C19.577 33.0299 19.577 33.5048 19.895 33.8593ZM16.073 29.5975C16.2288 29.7683 16.4385 29.864 16.657 29.864C16.8755 29.864 17.0852 29.7683 17.241 29.5975C17.3942 29.4239 17.48 29.1901 17.48 28.9465C17.48 28.703 17.3942 28.4692 17.241 28.2955C17.0852 28.1248 16.8755 28.0291 16.657 28.0291C16.4385 28.0291 16.2288 28.1248 16.073 28.2955C15.9198 28.4692 15.834 28.703 15.834 28.9465C15.834 29.1901 15.9198 29.4239 16.073 29.5975ZM23.824 29.5975C23.9798 29.7683 24.1895 29.864 24.408 29.864C24.6265 29.864 24.8362 29.7683 24.992 29.5975C25.1452 29.4239 25.231 29.1901 25.231 28.9465C25.231 28.703 25.1452 28.4692 24.992 28.2955C24.8362 28.1248 24.6265 28.0291 24.408 28.0291C24.1895 28.0291 23.9798 28.1248 23.824 28.2955C23.6708 28.4692 23.585 28.703 23.585 28.9465C23.585 29.1901 23.6708 29.4239 23.824 29.5975ZM19.895 25.3381C20.0508 25.5088 20.2605 25.6045 20.479 25.6045C20.6975 25.6045 20.9072 25.5088 21.063 25.3381C21.2165 25.1644 21.3025 24.9303 21.3025 24.6865C21.3025 24.4427 21.2165 24.2086 21.063 24.0349C20.9072 23.8642 20.6975 23.7685 20.479 23.7685C20.2605 23.7685 20.0508 23.8642 19.895 24.0349C19.7418 24.2086 19.656 24.4424 19.656 24.6859C19.656 24.9295 19.7418 25.1633 19.895 25.337V25.3381ZM16.073 25.3381C16.2288 25.5088 16.4385 25.6045 16.657 25.6045C16.8755 25.6045 17.0852 25.5088 17.241 25.3381C17.3945 25.1644 17.4805 24.9303 17.4805 24.6865C17.4805 24.4427 17.3945 24.2086 17.241 24.0349C17.0852 23.8642 16.8755 23.7685 16.657 23.7685C16.4385 23.7685 16.2288 23.8642 16.073 24.0349C15.9198 24.2086 15.834 24.4424 15.834 24.6859C15.834 24.9295 15.9198 25.1633 16.073 25.337V25.3381ZM19.895 29.5975C20.0508 29.7683 20.2605 29.864 20.479 29.864C20.6975 29.864 20.9072 29.7683 21.063 29.5975C21.2162 29.4239 21.302 29.1901 21.302 28.9465C21.302 28.703 21.2162 28.4692 21.063 28.2955C20.9072 28.1248 20.6975 28.0291 20.479 28.0291C20.2605 28.0291 20.0508 28.1248 19.895 28.2955C19.7418 28.4692 19.656 28.703 19.656 28.9465C19.656 29.1901 19.7418 29.4239 19.895 29.5975ZM19.895 21.0764C20.0508 21.2471 20.2605 21.3428 20.479 21.3428C20.6975 21.3428 20.9072 21.2471 21.063 21.0764C21.2162 20.9027 21.302 20.6689 21.302 20.4254C21.302 20.1818 21.2162 19.948 21.063 19.7743C20.9072 19.6036 20.6975 19.5079 20.479 19.5079C20.2605 19.5079 20.0508 19.6036 19.895 19.7743C19.7418 19.948 19.656 20.1818 19.656 20.4254C19.656 20.6689 19.7418 20.9027 19.895 21.0764ZM23.824 25.3381C23.9798 25.5088 24.1895 25.6045 24.408 25.6045C24.6265 25.6045 24.8362 25.5088 24.992 25.3381C25.1455 25.1644 25.2315 24.9303 25.2315 24.6865C25.2315 24.4427 25.1455 24.2086 24.992 24.0349C24.8362 23.8642 24.6265 23.7685 24.408 23.7685C24.1895 23.7685 23.9798 23.8642 23.824 24.0349C23.6708 24.2086 23.585 24.4424 23.585 24.6859C23.585 24.9295 23.6708 25.1633 23.824 25.337V25.3381ZM16.074 21.0764C16.2298 21.2471 16.4395 21.3428 16.658 21.3428C16.8765 21.3428 17.0862 21.2471 17.242 21.0764C17.3952 20.9027 17.481 20.6689 17.481 20.4254C17.481 20.1818 17.3952 19.948 17.242 19.7743C17.0862 19.6036 16.8765 19.5079 16.658 19.5079C16.4395 19.5079 16.2298 19.6036 16.074 19.7743C15.9208 19.948 15.835 20.1818 15.835 20.4254C15.835 20.6689 15.9208 20.9027 16.074 21.0764ZM27.647 25.3381C27.8028 25.5088 28.0125 25.6045 28.231 25.6045C28.4495 25.6045 28.6592 25.5088 28.815 25.3381C28.9685 25.1644 29.0545 24.9303 29.0545 24.6865C29.0545 24.4427 28.9685 24.2086 28.815 24.0349C28.6592 23.8642 28.4495 23.7685 28.231 23.7685C28.0125 23.7685 27.8028 23.8642 27.647 24.0349C27.4938 24.2086 27.408 24.4424 27.408 24.6859C27.408 24.9295 27.4938 25.1633 27.647 25.337V25.3381ZM23.824 21.0764C23.9798 21.2471 24.1895 21.3428 24.408 21.3428C24.6265 21.3428 24.8362 21.2471 24.992 21.0764C25.1452 20.9027 25.231 20.6689 25.231 20.4254C25.231 20.1818 25.1452 19.948 24.992 19.7743C24.8362 19.6036 24.6265 19.5079 24.408 19.5079C24.1895 19.5079 23.9798 19.6036 23.824 19.7743C23.6708 19.948 23.585 20.1818 23.585 20.4254C23.585 20.6689 23.6708 20.9027 23.824 21.0764ZM19.896 16.6987C20.0518 16.8695 20.2615 16.9652 20.48 16.9652C20.6985 16.9652 20.9082 16.8695 21.064 16.6987C21.2175 16.525 21.3035 16.291 21.3035 16.0472C21.3035 15.8033 21.2175 15.5693 21.064 15.3956C20.9082 15.2248 20.6985 15.1292 20.48 15.1292C20.2615 15.1292 20.0518 15.2248 19.896 15.3956C19.7428 15.5692 19.657 15.803 19.657 16.0466C19.657 16.2901 19.7428 16.5239 19.896 16.6976V16.6987ZM16.073 38.2369C16.2288 38.4076 16.4385 38.5033 16.657 38.5033C16.8755 38.5033 17.0852 38.4076 17.241 38.2369C17.3942 38.0632 17.48 37.8294 17.48 37.5859C17.48 37.3423 17.3942 37.1085 17.241 36.9349C17.0852 36.7641 16.8755 36.6684 16.657 36.6684C16.4385 36.6684 16.2288 36.7641 16.073 36.9349C15.9198 37.1085 15.834 37.3423 15.834 37.5859C15.834 37.8294 15.9198 38.0632 16.073 38.2369ZM16.073 33.8593C16.2288 34.03 16.4385 34.1257 16.657 34.1257C16.8755 34.1257 17.0852 34.03 17.241 33.8593C17.3942 33.6856 17.48 33.4518 17.48 33.2082C17.48 32.9647 17.3942 32.7309 17.241 32.5572C17.0852 32.3865 16.8755 32.2908 16.657 32.2908C16.4385 32.2908 16.2288 32.3865 16.073 32.5572C15.755 33.0299 15.755 33.5048 16.073 33.8593Z" fill="#0A3B3C"/>
<path d="M19.895 33.8595C20.0508 34.0303 20.2605 34.126 20.479 34.126C20.6975 34.126 20.9072 34.0303 21.063 33.8595C21.2162 33.6859 21.302 33.4521 21.302 33.2085C21.302 32.965 21.2162 32.7312 21.063 32.5575C20.9072 32.3867 20.6975 32.2911 20.479 32.2911C20.2605 32.2911 20.0508 32.3867 19.895 32.5575C19.576 33.0301 19.576 33.505 19.895 33.8595ZM16.073 29.5978C16.2288 29.7686 16.4385 29.8643 16.657 29.8643C16.8755 29.8643 17.0852 29.7686 17.241 29.5978C17.3942 29.4242 17.48 29.1904 17.48 28.9468C17.48 28.7033 17.3942 28.4695 17.241 28.2958C17.0852 28.125 16.8755 28.0294 16.657 28.0294C16.4385 28.0294 16.2288 28.125 16.073 28.2958C15.9198 28.4695 15.834 28.7033 15.834 28.9468C15.834 29.1904 15.9198 29.4242 16.073 29.5978ZM19.895 16.699C20.0508 16.8697 20.2605 16.9654 20.479 16.9654C20.6975 16.9654 20.9072 16.8697 21.063 16.699C21.2165 16.5253 21.3025 16.2912 21.3025 16.0474C21.3025 15.8036 21.2165 15.5696 21.063 15.3959C20.9072 15.2251 20.6975 15.1294 20.479 15.1294C20.2605 15.1294 20.0508 15.2251 19.895 15.3959C19.7418 15.5695 19.656 15.8033 19.656 16.0469C19.656 16.2904 19.7418 16.5242 19.895 16.6979V16.699ZM16.073 21.0744C16.2288 21.2452 16.4385 21.3408 16.657 21.3408C16.8755 21.3408 17.0852 21.2452 17.241 21.0744C17.3942 20.9007 17.48 20.6669 17.48 20.4234C17.48 20.1798 17.3942 19.946 17.241 19.7724C17.0852 19.6016 16.8755 19.506 16.657 19.506C16.4385 19.506 16.2288 19.6016 16.073 19.7724C15.9198 19.946 15.834 20.1798 15.834 20.4234C15.834 20.6669 15.9198 20.9007 16.073 21.0744ZM16.073 16.6957C16.2288 16.8664 16.4385 16.9621 16.657 16.9621C16.8755 16.9621 17.0852 16.8664 17.241 16.6957C17.3942 16.522 17.48 16.2882 17.48 16.0446C17.48 15.8011 17.3942 15.5673 17.241 15.3936C17.0852 15.2229 16.8755 15.1272 16.657 15.1272C16.4385 15.1272 16.2288 15.2229 16.073 15.3936C15.9198 15.5673 15.834 15.8011 15.834 16.0446C15.834 16.2882 15.9198 16.522 16.073 16.6957Z" fill="#0A3B3C"/>
<path d="M19.895 16.6957C20.0508 16.8664 20.2605 16.9621 20.479 16.9621C20.6975 16.9621 20.9072 16.8664 21.063 16.6957C21.2162 16.522 21.302 16.2882 21.302 16.0446C21.302 15.8011 21.2162 15.5673 21.063 15.3936C20.9072 15.2229 20.6975 15.1272 20.479 15.1272C20.2605 15.1272 20.0508 15.2229 19.895 15.3936C19.7418 15.5673 19.656 15.8011 19.656 16.0446C19.656 16.2882 19.7418 16.522 19.895 16.6957Z" fill="#0A3B3C"/>
<path fill-rule="evenodd" clip-rule="evenodd" d="M38.427 13.3257C38.5789 13.1713 38.7679 13.0695 38.9708 13.0327C39.1738 12.9959 39.382 13.0256 39.57 13.1184C47.006 16.7748 51.922 25.0607 51.922 34.3177C51.922 47.1095 42.632 57.4666 31.156 57.4666C24.168 57.4666 17.822 53.6887 13.993 47.348C13.8773 47.1561 13.8146 46.9307 13.8126 46.6996C13.8105 46.4685 13.8692 46.2417 13.9813 46.0473C14.0935 45.8529 14.2543 45.6994 14.4439 45.6056C14.6334 45.5119 14.8434 45.4821 15.048 45.5198C16.259 45.7395 17.484 45.8503 18.711 45.8509C30.155 45.8509 39.428 35.5138 39.428 22.7565C39.428 19.9083 38.938 17.263 38.134 14.5754C38.0691 14.358 38.0623 14.1243 38.1143 13.9026C38.1663 13.681 38.2749 13.481 38.427 13.3268V13.3257ZM40.853 16.5295C41.293 18.5294 41.551 20.5817 41.551 22.7565C41.551 36.8203 31.327 48.2175 18.711 48.2175C18.231 48.2175 17.737 48.2019 17.238 48.1685C20.708 52.5506 25.705 55.1 31.156 55.1C41.459 55.1 49.799 45.803 49.799 34.3177C49.799 26.9268 46.31 20.2305 40.853 16.5295Z" fill="#0B3B3D"/>
</g>
</svg>
