<svg width="12" height="12" viewBox="0 0 12 12" fill="none" xmlns="http://www.w3.org/2000/svg">
<path d="M6 -5.96046e-07C2.6875 -5.96046e-07 0 2.6875 0 6C0 9.3125 2.6875 12 6 12C9.3125 12 12 9.3125 12 6C12 2.6875 9.3125 -5.96046e-07 6 -5.96046e-07ZM8.14063 4.07031C8.22656 4.01562 8.36719 3.94531 8.47656 3.97656C8.5625 4 8.63281 4.03125 8.53125 4.10156C8.48438 4.13281 8.41406 4.10156 8.35938 4.11719C8.42969 4.13281 8.53125 4.16406 8.5 4.23437C8.70313 4.35156 8.4375 4.49219 8.30469 4.47656C8.36719 4.48437 8.17188 4.60156 8.17188 4.59375C8.10156 4.63281 8.00781 4.63281 7.95313 4.70312C7.89063 4.78906 7.97656 4.9375 7.85938 4.90625C7.8125 5.00781 7.63281 4.95312 7.55469 5.0625C7.64063 5.15625 7.46875 5.28906 7.38281 5.17187C7.30469 5.20312 7.34375 5.28906 7.26563 5.33594C7.29688 5.38281 7.30469 5.42969 7.25 5.46094C7.26563 5.45312 7.35938 5.53125 7.38281 5.53906C7.36719 5.57812 7.33594 5.60937 7.29688 5.60937C7.33594 5.71094 7.25 5.82031 7.17969 5.88281C7.10156 5.94531 6.92188 6.00781 6.89844 6.02344C6.75781 6.15625 6.66406 6.35156 6.91406 6.40625C6.92188 6.40625 6.92188 6.66406 6.92969 6.67187C6.94531 6.76562 6.98438 7.03906 6.82031 6.9375C6.74219 6.89844 6.69531 6.67969 6.67188 6.59375C6.64844 6.5 6.64063 6.5 6.57813 6.40625C6.47656 6.52344 6.46094 6.4375 6.375 6.38281C6.28906 6.33594 6.16406 6.35156 6.11719 6.30469C6 6.39062 5.91406 6.36719 5.89063 6.23437C5.85938 6.29687 5.92188 6.39062 5.91406 6.41406C5.875 6.49219 5.80469 6.47656 5.74219 6.42969C5.64063 6.35156 5.42188 6.48437 5.30469 6.42969C5.3125 6.42969 5.34375 6.46094 5.36719 6.47656C5.34375 6.57031 5.28906 6.51562 5.24219 6.54687C5.1875 6.58594 5.14063 6.66406 5.09375 6.70312C5.19531 6.89844 5.08594 7.08594 5.09375 7.29687C5.09375 7.45312 5.19531 7.72656 5.34375 7.8125C5.41406 7.85156 5.64844 7.86719 5.71875 7.83594C5.82813 7.78906 5.8125 7.70312 5.85156 7.60937C5.89063 7.50781 5.9375 7.46094 6.05469 7.45312C6.39063 7.4375 6.13281 7.71094 6.09375 7.85156C6.07031 7.95312 6.0625 8.07031 6.04688 8.16406C6.08594 8.17969 6.125 8.17187 6.16406 8.17187C6.16406 8.14062 6.1875 8.10156 6.1875 8.07812C6.23438 8.15625 6.39063 8.17969 6.4375 8.08594C6.49219 8.17969 6.60156 8.25 6.61719 8.35937C6.63281 8.46875 6.73438 8.58594 6.58594 8.58594C6.47656 8.58594 6.60156 8.80469 6.61719 8.84375C6.70313 9 6.84375 9.0625 7 8.98437C7 9.04687 6.97656 9.21875 6.89063 9.23437C6.8125 9.25 6.66406 9.08594 6.69531 9C6.6875 9.03125 6.66406 9.05469 6.64063 9.07031C6.5625 8.97656 6.42969 8.92969 6.35938 8.83594C6.34375 8.8125 6.13281 8.49219 6.17969 8.47656C6.07031 8.52344 5.85156 8.44531 5.75 8.39062C5.58594 8.30469 5.5625 8.07812 5.35938 8.10937C5.21875 8.13281 5.17969 8.1875 5.01563 8.125C4.90625 8.08594 4.8125 8.00781 4.70313 7.95312C4.57813 7.88281 4.35938 7.8125 4.3125 7.65625C4.26562 7.53125 4.28125 7.38281 4.21094 7.26562C4.16406 7.1875 4.02344 7.03125 3.92188 7.03125C4.01563 7.03125 3.83594 6.79687 3.8125 6.77344C3.72656 6.67187 3.41406 6.39844 3.47656 6.24219C3.49219 6.21875 3.32031 6.15625 3.28906 6.14844C3.32031 6.22656 3.32813 6.3125 3.36719 6.38281C3.40625 6.46094 3.45313 6.53125 3.5 6.60937C3.58594 6.75 3.70313 6.92187 3.6875 7.09375C3.58594 7.125 3.61719 6.97656 3.58594 6.91406C3.53125 6.8125 3.38281 6.8125 3.34375 6.70312C3.35938 6.69531 3.36719 6.69531 3.38281 6.6875C3.39063 6.55469 3.19531 6.44531 3.22656 6.35156C3.11719 6.26562 3.11719 6.10156 3.03906 5.99219C2.96875 5.89062 2.85156 5.84375 2.75 5.77344C2.71094 5.75 2.42969 5.39062 2.53125 5.36719C2.375 5.40625 2.29688 5.03906 2.32031 4.94531C2.32031 4.94531 2.30469 4.94531 2.30469 4.9375C2.33594 4.84375 2.28125 4.35937 2.40625 4.35156C2.32031 4.35937 2.29688 4.14844 2.32031 4.10937C2.33594 4.07812 2.45313 4.19531 2.46094 4.21094C2.50781 4.1875 2.55469 4.125 2.53906 4.07031C2.51563 4.00781 2.42969 3.95312 2.375 3.90625C2.35156 3.89062 2.03906 3.6875 2.03125 3.69531C2.0625 3.64062 2.05469 3.58594 2.00781 3.54687C1.85938 3.66406 1.9375 3.4375 1.85938 3.41406C1.82813 3.40625 1.79688 3.38281 1.76563 3.35156C2.21875 2.63281 2.85156 2.03125 3.60156 1.61719C3.64844 1.60937 3.71094 1.60937 3.77344 1.60937C3.91406 1.625 3.99219 1.74219 4.09375 1.8125C4.10938 1.77344 4.07813 1.71094 4.05469 1.67187C4.07813 1.60937 4.17188 1.59375 4.22656 1.57812C4.29688 1.57031 4.39844 1.55469 4.46094 1.58594C4.41406 1.51562 4.35938 1.45312 4.30469 1.39062C4.29688 1.39844 4.27344 1.41406 4.26562 1.42969C4.17969 1.35937 4.01563 1.45312 3.9375 1.48437C3.875 1.51562 3.82031 1.55469 3.75781 1.57812C3.71875 1.59375 3.69531 1.59375 3.66406 1.58594C3.89844 1.46094 4.14063 1.35156 4.39844 1.26562C4.44531 1.29687 4.49219 1.35156 4.5625 1.40625C4.51563 1.36719 4.51563 1.54687 4.53125 1.57812C4.61719 1.69531 4.80469 1.61719 4.92188 1.61719C4.91406 1.61719 5.26563 1.66406 5.19531 1.57812C5.25 1.65625 5.25 1.77344 5.32031 1.84375C5.39063 1.77344 5.28906 1.69531 5.33594 1.625C5.35156 1.59375 5.49219 1.55469 5.53906 1.53125C5.59375 1.49219 5.5 1.4375 5.47656 1.42187C5.39844 1.375 5.09375 1.35156 5.24219 1.17187C5.29688 1.10937 5.49219 1.14062 5.55469 1.17969C5.64063 1.22656 5.73438 1.3125 5.61719 1.39062C5.67188 1.39844 5.92969 1.46875 5.89063 1.57031C5.91406 1.52344 5.95313 1.45312 6.01563 1.45312C6.08594 1.46094 6.10156 1.625 6.13281 1.66406C6.24219 1.85937 6.42969 1.46875 6.46094 1.48437C6.32031 1.42969 6.58594 1.35937 6.65625 1.38281C6.71094 1.40625 6.79688 1.59375 6.69531 1.58594C6.78125 1.66406 6.78906 1.83594 6.63281 1.82812C6.52344 1.82031 6.39844 1.67187 6.29688 1.78906C6.22656 1.86719 6.19531 1.98437 6.125 2.05469C6.01563 2.16406 5.86719 2.15625 5.73438 2.14062C5.78906 2.14844 5.61719 2.32812 5.60156 2.35938C5.55469 2.41406 5.52344 2.47656 5.50781 2.53906C5.49219 2.61719 5.50781 2.70312 5.46875 2.78125C5.60156 2.74219 5.67188 2.98437 5.61719 2.99219C5.78125 2.96875 5.91406 2.96875 6.07031 3.02344C6.17969 3.0625 6.34375 3.10937 6.39063 3.22656C6.42188 3.17969 6.57031 3.20312 6.61719 3.21875C6.71094 3.26562 6.71875 3.36719 6.74219 3.45312C6.77344 3.57031 6.875 3.76562 7.00781 3.70312C7.03125 3.6875 7.20313 3.60937 7.14063 3.5625C7.07813 3.50781 7.00781 3.36719 7.07031 3.28906C7.13281 3.20312 7.28125 3.17969 7.32031 3.07031C7.38281 2.89062 7.13281 2.91406 7.13281 2.78125C7.13281 2.70312 7.23438 2.67969 7.22656 2.58594C7.22656 2.50781 7.10938 2.35156 7.20313 2.29687C7.28125 2.25 7.65625 2.32812 7.72656 2.375C7.79688 2.42187 8.01563 2.48437 8.03125 2.55469C8.01563 2.55469 8.00781 2.55469 7.99219 2.55469C8.05469 2.60937 8.10938 2.72656 8 2.75781C8.07031 2.74219 8.27344 2.82031 8.13281 2.86719C8.17969 2.84375 8.21875 2.85937 8.26563 2.82812C8.32031 2.79688 8.35156 2.74219 8.42188 2.78125C8.4375 2.78906 8.52344 2.61719 8.57031 2.625C8.64062 2.63281 8.65625 2.73437 8.6875 2.78125C8.71875 2.85156 8.80469 2.875 8.83594 2.94531C8.89063 3.07812 8.86719 3.20312 9.04688 3.25C9.10156 3.26562 9.25 3.17969 9.24219 3.29687C9.27344 3.26562 9.28906 3.24219 9.28906 3.23438C9.29688 3.34375 9.34375 3.46875 9.47656 3.45312C9.47656 3.45312 9.47656 3.60156 9.46094 3.625C9.41406 3.69531 9.29688 3.67969 9.22656 3.71875C9.20313 3.72656 9.01563 3.89062 9.03906 3.91406C8.9375 3.79687 8.77344 3.79687 8.64062 3.82812C8.5 3.85156 8.36719 3.86719 8.23438 3.92187C8.17188 3.95312 8.10938 3.98437 8.0625 4.03906C8.03906 4.07031 8 4.21094 7.96094 4.21875C8.03906 4.20312 8.07813 4.11719 8.14063 4.07031ZM6.86719 10.9219C6.85938 10.8828 6.85156 10.8047 6.85156 10.7969C6.84375 10.6719 6.97656 10.5859 6.96875 10.4687C6.88281 10.4453 6.85938 10.3594 6.875 10.2656C6.89063 10.1328 7.00781 10.0391 7.10156 9.95312C7.19531 9.86719 7.21875 9.6875 7.19531 9.57812C7.15625 9.39062 7.15625 9.19531 7.125 9.00781C7.13281 9.05469 7.26563 9.03906 7.28906 9.10156C7.32031 9.04687 7.33594 8.97656 7.375 8.92188C7.40625 8.875 7.46094 8.85937 7.50781 8.82031C7.58594 8.77344 7.75 8.59375 7.84375 8.70312C7.92188 8.79687 7.72656 8.89844 7.82813 8.98437C7.85938 8.92188 7.82813 8.82812 7.89063 8.76562C8.01563 8.625 8.10156 8.78125 8.22656 8.82031C8.35938 8.85937 8.40625 8.90625 8.50781 8.99219C8.47656 8.96094 8.63281 8.90625 8.64844 8.89844C8.79688 8.86719 8.85938 8.95312 8.96094 9.03125C9.07031 9.10937 9.24219 9.16406 9.22656 9.32031C9.30469 9.33594 9.35156 9.35937 9.41406 9.38281C9.47656 9.41406 9.5625 9.39844 9.60938 9.44531C8.89063 10.2031 7.9375 10.7344 6.86719 10.9219Z" fill="#F48E0B"/>
</svg>
