<svg width="12" height="12" viewBox="0 0 12 12" xmlns="http://www.w3.org/2000/svg">
<path d="M2.83594 11H2V10H1V9.16406L1.71094 8.45312L3.54688 10.2891L2.83594 11ZM6.92188 3.75C6.92188 3.79687 6.90625 3.84375 6.86719 3.88281L2.63281 8.11719C2.59375 8.15625 2.54688 8.17187 2.5 8.17187C2.39844 8.17187 2.32813 8.10156 2.32813 8C2.32813 7.95312 2.34375 7.90625 2.38281 7.86719L6.61719 3.63281C6.65625 3.59375 6.70313 3.57812 6.75 3.57812C6.85156 3.57812 6.92188 3.64844 6.92188 3.75ZM6.5 2.25L0 8.75V12H3.25L9.75 5.5L6.5 2.25ZM11.8359 3C11.8359 2.73437 11.7266 2.47656 11.5469 2.28906L9.71094 0.460937C9.52344 0.273437 9.26563 0.164062 9 0.164062C8.73438 0.164062 8.47656 0.273437 8.29688 0.460937L7 1.75L10.25 5L11.5469 3.70312C11.7266 3.52344 11.8359 3.26562 11.8359 3Z" />
</svg>
