<svg width="48" height="13" viewBox="0 0 48 13" fill="none" xmlns="http://www.w3.org/2000/svg">
<path d="M47.998 6.97663L41.9746 1.08984C41.7285 0.828125 41.3613 0.718751 41.0137 0.804689C40.666 0.890625 40.3887 1.15625 40.291 1.5C40.1895 1.84766 40.2832 2.21875 40.5371 2.47266L44.2676 5.97663L1.01367 5.97663C0.654297 5.97272 0.318359 6.16022 0.134765 6.47272C-0.0449221 6.78522 -0.0449222 7.16803 0.134765 7.48053C0.318359 7.79303 0.654297 7.98053 1.01367 7.97663L44.2676 7.97663L40.5371 10.8086C40.2832 11.0625 40.1895 11.4336 40.291 11.7813C40.3887 12.125 40.666 12.3907 41.0137 12.4766C41.3613 12.5625 41.7285 12.4532 41.9746 12.1914L47.998 6.97663Z" fill="#606060"/>
</svg>
