<svg width="15" height="15" viewBox="0 0 15 15" fill="none" xmlns="http://www.w3.org/2000/svg">
<path d="M3.85714 13.0714C3.85714 12.0067 2.9933 11.1429 1.92857 11.1429C0.863839 11.1429 0 12.0067 0 13.0714C0 14.1362 0.863839 15 1.92857 15C2.9933 15 3.85714 14.1362 3.85714 13.0714ZM9 14.3069C8.82924 12.1674 7.89509 10.1484 6.3683 8.6317C4.85156 7.10491 2.83259 6.17076 0.69308 6C0.672991 6 0.662946 6 0.642857 6C0.482143 6 0.321429 6.06027 0.210938 6.17076C0.0703125 6.29129 0 6.46205 0 6.64286V7.99888C0 8.33036 0.251116 8.60156 0.582589 8.6317C3.64621 8.92299 6.07701 11.3538 6.3683 14.4174C6.39844 14.7489 6.66964 15 7.00112 15H8.35714C8.53795 15 8.70871 14.9297 8.82924 14.7891C8.94978 14.6585 9.01005 14.4877 9 14.3069ZM14.1429 14.327C13.9621 10.8114 12.4855 7.5067 9.98438 5.01562C7.4933 2.51451 4.18862 1.03795 0.672991 0.857142C0.662946 0.857142 0.652902 0.857142 0.642857 0.857142C0.482143 0.857142 0.321429 0.91741 0.200893 1.03795C0.0703125 1.15848 0 1.3192 0 1.5V2.93638C0 3.26786 0.261161 3.54911 0.602679 3.5692C6.43862 3.91071 11.0893 8.56138 11.4208 14.3973C11.4408 14.7388 11.7221 15 12.0636 15H13.5C13.6808 15 13.8415 14.9297 13.9621 14.7991C14.0926 14.6685 14.1529 14.4978 14.1429 14.327Z" fill="white"/>
</svg>
